<?xml version="1.0" encoding="UTF-8"?>
<svg width="502px" height="354px" viewBox="0 0 502 354" version="1.1" xmlns="http://www.w3.org/2000/svg" xmlns:xlink="http://www.w3.org/1999/xlink">
    <title>intro02_img</title>
    <defs>
        <path d="M20.5,0 C31.8218374,-2.07978778e-15 41,9.17816263 41,20.5 L41,22.10185 L41,22.10185 L0,22.10185 L0,20.5 C-1.38652519e-15,9.17816263 9.17816263,2.07978778e-15 20.5,0 Z" id="path-1"></path>
        <path d="M20.5,0 C31.8218374,-2.07978778e-15 41,9.17816263 41,20.5 L41,21.9550743 L41,21.9550743 L0,21.9550743 L0,20.5 C-1.38652519e-15,9.17816263 9.17816263,2.07978778e-15 20.5,0 Z" id="path-3"></path>
        <path d="M23.5,0 C36.4786916,-2.38414697e-15 47,10.5213084 47,23.5 L47,25.735745 L47,25.735745 L0,25.735745 L0,23.5 C-5.14214499e-15,10.5213084 10.5213084,2.38414697e-15 23.5,0 Z" id="path-5"></path>
    </defs>
    <g id="页面-1" stroke="none" stroke-width="1" fill="none" fill-rule="evenodd">
        <g id="首页" transform="translate(-762.000000, -1473.000000)">
            <g id="intro02_img" transform="translate(762.000000, 1473.000000)">
                <text id="接入服务器" font-family="PingFangSC-Light, PingFang SC" font-size="12" font-weight="300" fill="#2E2E2E">
                    <tspan x="442" y="71">接入服务器</tspan>
                </text>
                <text id="Token" font-family="PingFangSC-Light, PingFang SC" font-size="12" font-weight="300" fill="#2E2E2E">
                    <tspan x="138" y="64">Token</tspan>
                </text>
                <text id="DAO" font-family="PingFangSC-Light, PingFang SC" font-size="12" font-weight="300" fill="#2E2E2E">
                    <tspan x="30" y="211">DAO</tspan>
                </text>
                <g id="编组-6" transform="translate(0.000000, 289.000000)">
                    <ellipse id="椭圆形备份-5" fill="#25EA3F" cx="64.5491803" cy="21.0566038" rx="21.0634167" ry="21.0566038"></ellipse>
                    <ellipse id="椭圆形备份-11" fill="#EFC015" cx="21.0634167" cy="21.0566038" rx="21.0634167" ry="21.0566038"></ellipse>
                    <ellipse id="椭圆形" stroke="#2E2E2E" fill="#F8FCFD" cx="65.9081104" cy="20.3773585" rx="19.8839517" ry="19.8773585"></ellipse>
                    <g id="编组-5" transform="translate(2.038395, 0.000000)">
                        <ellipse id="椭圆形备份-3" stroke="#2E2E2E" fill="#F8FCFD" cx="20.3839517" cy="20.3773585" rx="19.8839517" ry="19.8773585"></ellipse>
                        <ellipse id="椭圆形备份-4" stroke="#2E2E2E" cx="20.3839517" cy="20.3773585" rx="15.8071613" ry="15.8018868"></ellipse>
                        <g id="编组" transform="translate(13.589301, 9.509434)" fill="#2E2E2E">
                            <polygon id="Fill-1" points="0 10.9548781 6.52283401 14.1283019 13.0457291 10.9548781 6.52283401 0"></polygon>
                            <polygon id="Fill-2" points="6.52284927 15.5158551 0 11.954717 6.52284927 21.7358491 13.0457291 11.954717"></polygon>
                        </g>
                    </g>
                    <ellipse id="椭圆形备份-2" stroke="#2E2E2E" cx="65.9081104" cy="20.3773585" rx="15.8071613" ry="15.8018868"></ellipse>
                    <path d="M73.1636443,12.2264151 L73.1636443,16.0885309 L67.8195918,16.0885309 L67.8195918,18.6088936 C72.157088,18.8223011 75.4206212,19.7475947 75.4206212,20.8567428 C75.4206212,21.9658909 72.157088,22.8912189 67.8195918,23.104592 L67.8195918,23.104592 L67.8195918,31.245283 L63.9966291,31.245283 L63.9966291,23.104592 C59.6591328,22.8912189 56.3955997,21.9658909 56.3955997,20.8567428 C56.3955997,19.7475947 59.6591328,18.8223011 63.9966291,18.6088936 L63.9966291,18.6088936 L63.9966291,16.0885309 L58.6525766,16.0885309 L58.6525766,12.2264151 L73.1636443,12.2264151 Z M67.8195918,19.1637256 L67.8195918,21.4241323 C67.2440289,21.4806579 66.5950288,21.512516 65.9081104,21.512516 C65.2211921,21.512516 64.572192,21.4806579 63.9966291,21.4241323 L63.9966291,21.4241323 L63.9966291,19.1637256 C60.5706881,19.331892 58.0322442,19.9416672 58.0322442,20.6682437 C58.0322442,21.5246262 61.5583957,22.218863 65.9081104,22.218863 C70.2578252,22.218863 73.7839767,21.5246262 73.7839767,20.6682437 C73.7839767,19.9416672 71.2455644,19.331892 67.8195918,19.1637256 L67.8195918,19.1637256 Z" id="形状结合" fill="#2E2E2E"></path>
                </g>
                <g id="编组-11" transform="translate(125.000000, 3.000000)" stroke="#2E2E2E" stroke-width="2">
                    <rect id="矩形" x="1" y="1" width="57.4531924" height="45.5471698"></rect>
                    <line x1="6.19197584" y1="29.785967" x2="6.19197584" y2="40.4721083" id="直线-3" stroke-linecap="round"></line>
                    <line x1="14.1919758" y1="31.410967" x2="14.1919758" y2="40.4721083" id="直线-3备份" stroke-linecap="round"></line>
                    <line x1="22.1919758" y1="28.0373257" x2="22.1919758" y2="40.4721083" id="直线-3备份-2" stroke-linecap="round"></line>
                    <line x1="30.1919758" y1="30.598467" x2="30.1919758" y2="40.4721083" id="直线-3备份-3" stroke-linecap="round"></line>
                    <line x1="46.1919758" y1="30.598467" x2="46.1919758" y2="40.4721083" id="直线-3备份-5" stroke-linecap="round"></line>
                    <line x1="38.1919758" y1="28.0373257" x2="38.1919758" y2="40.4721083" id="直线-3备份-4" stroke-linecap="round"></line>
                    <line x1="54.1919758" y1="28.0373257" x2="54.1919758" y2="40.4721083" id="直线-3备份-6" stroke-linecap="round"></line>
                    <polyline id="路径" stroke-linecap="round" points="6.19197584 15.9810112 24.9567717 21.6796515 32.2250113 12.5682701 40.1626317 17.0429617 51.5177214 11.4012678"></polyline>
                    <polyline id="路径" stroke-linecap="round" transform="translate(49.804429, 12.222115) rotate(2.000000) translate(-49.804429, -12.222115) " points="47.8783286 9.81785609 51.7305288 10.6263734 51.7301991 14.6263734"></polyline>
                </g>
                <rect id="矩形" stroke="#2E2E2E" stroke-width="2" x="450" y="199" width="43.2976704" height="65.9245283"></rect>
                <rect id="矩形备份-5" stroke="#2E2E2E" stroke-width="2" x="455" y="204" width="34.011648" height="42"></rect>
                <circle id="椭圆形" stroke="#2E2E2E" stroke-width="2" cx="472" cy="255" r="4"></circle>
                <rect id="矩形备份-2" stroke="#2E2E2E" stroke-width="2" x="445" y="1" width="48" height="16.8085106"></rect>
                <rect id="矩形" fill="#2E2E2E" x="478" y="7" width="11" height="4"></rect>
                <rect id="矩形备份-8" fill="#2E2E2E" x="478" y="24" width="11" height="4"></rect>
                <rect id="矩形备份-9" fill="#2E2E2E" x="478" y="41" width="11" height="4"></rect>
                <rect id="矩形备份-6" stroke="#2E2E2E" stroke-width="2" x="445" y="18" width="48" height="16.8085106"></rect>
                <rect id="矩形备份-7" stroke="#2E2E2E" stroke-width="2" x="445" y="35" width="48" height="16.8085106"></rect>
                <g id="编组-9" transform="translate(2.000000, 143.000000)">
                    <g id="编组-8备份-2" transform="translate(0.000000, 10.000000)">
                        <g id="椭圆形" transform="translate(0.000000, 18.898150)">
                            <mask id="mask-2" fill="white">
                                <use xlink:href="#path-1"></use>
                            </mask>
                            <use id="蒙版" fill="#25A0EA" xlink:href="#path-1"></use>
                            <ellipse stroke="#2E2E2E" fill="#F8FCFD" mask="url(#mask-2)" cx="20.2813973" cy="0.396187008" rx="7.6966269" ry="7.60067805"></ellipse>
                        </g>
                        <g id="编组-7" transform="translate(11.038462, 0.000000)">
                            <rect id="矩形" stroke="#2E2E2E" fill="#F8FCFD" x="4.34054332" y="3.14818621" width="13.7179487" height="19.9860745" rx="6.85897436"></rect>
                            <path d="M9.69343891,0 C11.663056,0 13.3917026,1.02977611 14.3684293,2.57934057 C15.68927,2.79481262 16.6968326,3.93942598 16.6968326,5.31892534 C16.6968326,6.61192216 15.8116682,7.69856682 14.6131738,8.00810101 C13.7007683,9.7943034 11.8402415,11.0176891 9.69343891,11.0176891 C9.06035392,11.0176891 8.45216464,10.9112985 7.88583858,10.7154529 C7.59593867,10.8181082 7.28302288,10.8740627 6.95701357,10.8740627 C6.93290532,10.8740627 6.90886868,10.8737567 6.88490731,10.8731484 C6.93285745,11.0964644 6.95701357,11.329644 6.95701357,11.5684549 C6.95701357,13.4859659 5.39963304,15.0404157 3.47850679,15.0404157 C1.55738054,15.0404157 0,13.4859659 0,11.5684549 C0,10.3995612 0.578720737,9.36558056 1.465777,8.73638946 C1.41715795,8.53160123 1.39140271,8.3170497 1.39140271,8.09649402 C1.39140271,6.56248519 2.63730714,5.31892534 4.17420814,5.31892534 C4.17555542,5.31892534 4.17690247,5.31892629 4.17824929,5.3189282 C4.27796622,2.36416542 6.70909182,0 9.69343891,0 Z" id="形状结合" fill="#2E2E2E"></path>
                        </g>
                    </g>
                    <g id="编组-8备份-3" transform="translate(41.000000, 11.000000)">
                        <g id="椭圆形" transform="translate(0.000000, 18.044926)">
                            <mask id="mask-4" fill="white">
                                <use xlink:href="#path-3"></use>
                            </mask>
                            <use id="蒙版" fill="#6B25EA" xlink:href="#path-3"></use>
                            <ellipse stroke="#2E2E2E" fill="#F8FCFD" mask="url(#mask-4)" cx="20.2813973" cy="0.393555979" rx="7.6966269" ry="7.54688245"></ellipse>
                        </g>
                        <g id="编组-7" transform="translate(10.656093, 0.000000)">
                            <rect id="矩形" stroke="#2E2E2E" fill="#F8FCFD" x="1.56906528" y="2.40287584" width="13.7179487" height="19.8467086" rx="6.85897436"></rect>
                            <path d="M4.82855486,1.33272559 C4.82855486,-0.953006907 14.2435867,0.216451748 15.9979129,1.05966379 C17.752239,1.90287584 19.3280156,5.12165871 19.3280156,7.40739121 C19.3280156,9.69312371 17.5246523,10.5774173 15.2193008,10.5774173 C14.8197716,10.5774173 14.2466409,10.3684074 13.5720804,10.0109349 C13.2049757,10.0525816 12.8271314,10.0741253 12.4411916,10.0741253 C8.95754937,10.0741253 6.13349933,8.31883574 6.13349933,6.15357632 L6.13585153,6.20967428 C4.70098067,8.03440237 2.41736168,10.0741253 1.4027301,10.0741253 C-0.134170898,10.0741253 -0.373283402,9.63303222 0.51472335,8.05925388 C1.4027301,6.48547554 1.61822713,2.3627297 3.32580089,2.15589621 C3.87172135,2.08977044 4.48379185,2.08540585 5.06391601,2.15986528 C4.91181358,1.84474275 4.82855486,1.56467308 4.82855486,1.33272559 Z" id="形状结合" fill="#2E2E2E"></path>
                        </g>
                    </g>
                    <g id="编组-8" transform="translate(18.000000, 0.000000)">
                        <g id="椭圆形" transform="translate(0.000000, 26.264255)">
                            <mask id="mask-6" fill="white">
                                <use xlink:href="#path-5"></use>
                            </mask>
                            <use id="蒙版" fill="#EA6825" xlink:href="#path-5"></use>
                            <ellipse stroke="#2E2E2E" fill="#F8FCFD" mask="url(#mask-6)" cx="23.2494067" cy="0.461326443" rx="8.89613328" ry="8.93255814"></ellipse>
                        </g>
                        <g id="编组-7" transform="translate(10.721229, 0.000000)">
                            <rect id="矩形" stroke="#2E2E2E" fill="#F8FCFD" x="4.82252725" y="5.3372093" width="15.565035" height="22.7560724" rx="7"></rect>
                            <path d="M18.7922666,0 C20.5220469,0 21.924311,1.40770004 21.924311,3.14418605 C21.924311,3.28194196 21.9154861,3.41762873 21.898373,3.55070771 C22.848613,4.08942257 23.4903332,5.11366592 23.4903332,6.28837209 C23.4903332,6.37785011 23.48661,6.46645516 23.4793105,6.55403961 C25.3096099,7.1969213 26.6223776,8.94688526 26.6223776,11.0046512 C26.6223776,13.6093802 24.5189815,15.7209302 21.924311,15.7209302 C19.3296404,15.7209302 17.2262443,13.6093802 17.2262443,11.0046512 C17.2262443,10.8585724 17.23286,10.7140447 17.2458068,10.5713537 C16.7811288,10.8470475 16.2390095,11.0046512 15.6602221,11.0046512 C14.7246207,11.0046512 13.8848341,10.5928288 13.3109239,9.93990483 C12.7375436,10.5928288 11.8977569,11.0046512 10.9621555,11.0046512 C10.9621555,12.7411372 9.55989144,14.1488372 7.83011107,14.1488372 C7.80363825,14.1488372 7.77724215,14.1485075 7.75092661,14.147852 C7.80300472,14.4013846 7.83011107,14.6649564 7.83011107,14.9348837 C7.83011107,17.1054912 6.077281,18.8651163 3.91505553,18.8651163 C1.75283007,18.8651163 0,17.1054912 0,14.9348837 C0,13.6117293 0.651325787,12.4412899 1.64967576,11.7290468 C1.59499764,11.4970881 1.56602221,11.2542665 1.56602221,11.0046512 C1.56602221,9.26816516 2.96828627,7.86046512 4.69806664,7.86046512 C4.84701324,7.86046512 4.9935315,7.87090245 5.13693523,7.89108829 C4.85779887,7.42306857 4.69806664,6.87444637 4.69806664,6.28837209 C4.69806664,4.55188609 6.10033069,3.14418605 7.83011107,3.14418605 C7.96767981,3.14418605 8.10317702,3.15308969 8.23606208,3.17035426 C8.77142347,2.21647393 9.79182846,1.57209302 10.9621555,1.57209302 C11.8977569,1.57209302 12.7375436,1.98391543 13.3114537,2.63683936 C13.8848341,1.98391543 14.7246207,1.57209302 15.6602221,1.57209302 C15.7975503,1.57209302 15.9328142,1.58096556 16.0654761,1.59817075 C16.6015345,0.644380909 17.6219395,0 18.7922666,0 Z" id="形状结合" fill="#2E2E2E"></path>
                        </g>
                    </g>
                </g>
                <path d="M448,3.5 L455.764706,9.5 L448,15.5 L447.999882,11.97 L434.705882,11.9705882 L434.705882,6.32352941 L447.999882,6.323 L448,3.5 Z" id="形状结合" fill="#25EA3F"></path>
                <g id="编组" transform="translate(252.896462, 167.849057) rotate(-10.000000) translate(-252.896462, -167.849057) translate(223.000000, 140.000000)">
                    <path d="M47.3789819,1 C48.2810678,1 49.0983685,1.35909979 49.6897185,1.94173219 C50.2756535,2.5190294 50.6393443,3.31621223 50.6393443,4.19755671 L50.6393443,4.19755671 L50.6393443,54.6981132 L12.502157,54.6981132 C11.5757531,54.6981132 10.7364059,54.3292531 10.1290843,53.7308846 C9.52717795,53.1378514 9.15358067,52.3189474 9.15358067,51.413643 L9.15358067,51.413643 L9.15358067,1 Z" id="Stroke-1" stroke="#000000" stroke-width="2"></path>
                    <ellipse id="椭圆形" fill="#1557EF" cx="42.8062985" cy="42.7924528" rx="3.39732528" ry="3.39622642"></ellipse>
                    <ellipse id="椭圆形备份" fill="#25EA3F" cx="35.8379998" cy="36.9848078" rx="3.39732528" ry="3.39622642"></ellipse>
                    <path d="M17.9305812,49.3 L17.9305812,49.9037736 C17.9305812,52.5714178 15.9869281,54.7339623 13.5893011,54.7339623 L22.0392927,54.7339623 L55.9943049,54.7339623 C58.0922285,54.7339623 59.7929249,52.8417358 59.7929249,50.5075472 L17.9305812,49.3 Z" id="Stroke-3" stroke="#000000" stroke-width="2" fill="#FFFFFF"></path>
                    <path d="M9.51251079,5.43396226 C9.51251079,2.43286253 7.3830673,0 4.75625539,0 C2.12944349,0 0,2.43286253 0,5.43396226 L9.51251079,5.43396226 Z" id="Fill-5" fill="#000000"></path>
                    <polygon id="矩形" fill="#000000" points="4.75625539 -1.11985892e-13 9.51251079 0 9.51251079 4.0754717 4.75625539 4.0754717"></polygon>
                    <line x1="14.5358929" y1="12.8095248" x2="44.1416509" y2="8.09001004" id="直线-2" stroke="#2E2E2E" stroke-width="2" stroke-linecap="round" transform="translate(29.338772, 10.449767) rotate(10.000000) translate(-29.338772, -10.449767) "></line>
                    <line x1="14.708447" y1="22.3493847" x2="44.314205" y2="17.6298699" id="直线-2备份" stroke="#2E2E2E" stroke-width="2" stroke-linecap="round" transform="translate(29.511326, 19.989627) rotate(10.000000) translate(-29.511326, -19.989627) "></line>
                    <line x1="14.8810011" y1="31.8892446" x2="44.4867591" y2="27.1697298" id="直线-2备份-2" stroke="#2E2E2E" stroke-width="2" stroke-linecap="round" transform="translate(29.683880, 29.529487) rotate(10.000000) translate(-29.683880, -29.529487) "></line>
                </g>
                <rect id="矩形" stroke="#2E2E2E" stroke-width="2" x="229" y="293" width="46.921484" height="34.6792453"></rect>
                <path id="直线-4" d="M124.387929,75.1336989 L125.755576,76.592994 L125.025929,77.2768174 L70.012,128.835 L74.1152897,133.213251 L59.1134599,137.679245 L64.5417626,122.998185 L68.644,127.376 L123.658282,75.8175222 L124.387929,75.1336989 Z" fill="#2E2E2E" fill-rule="nonzero"></path>
                <path id="直线-4备份" d="M250.76843,75.1336989 L252.136077,76.592994 L251.406429,77.2768174 L196.392,128.835 L200.49579,133.213251 L185.49396,137.679245 L190.922263,122.998185 L195.025,127.376 L250.038782,75.8175222 L250.76843,75.1336989 Z" transform="translate(218.108283, 107.113208) scale(-1, 1) translate(-218.108283, -107.113208) " fill="#2E2E2E" fill-rule="nonzero"></path>
                <path id="直线-4备份-2" d="M221.209839,19.0176342 L221.202,25.017 L223.965617,25.021109 L224.965617,25.0223681 L224.963098,27.0223666 L223.963099,27.0211074 L221.199,27.017 L221.19221,33.0176231 L207.201035,26 L221.209839,19.0176342 Z M426.965456,25.2767237 L427.965456,25.2779829 L431.965452,25.2830197 L432.965452,25.2842788 L432.962933,27.2842773 L431.962934,27.2830181 L427.962937,27.2779813 L426.962938,27.2767221 L426.965456,25.2767237 Z M418.965463,25.2666502 L419.965462,25.2679094 L423.965459,25.2729462 L424.965458,25.2742054 L424.96294,27.2742038 L423.96294,27.2729446 L419.962944,27.2679078 L418.962944,27.2666487 L418.965463,25.2666502 Z M410.965469,25.2565768 L411.965468,25.2578359 L415.965465,25.2628727 L416.965464,25.2641319 L416.962946,27.2641303 L415.962947,27.2628711 L411.96295,27.2578344 L410.962951,27.2565752 L410.965469,25.2565768 Z M402.965475,25.2465033 L403.965475,25.2477624 L407.965471,25.2527992 L408.965471,25.2540584 L408.962952,27.2540568 L407.962953,27.2527976 L403.962956,27.2477609 L402.962957,27.2465017 L402.965475,25.2465033 Z M394.965482,25.2364298 L395.965481,25.237689 L399.965478,25.2427257 L400.965477,25.2439849 L400.962959,27.2439833 L399.962959,27.2427241 L395.962963,27.2376874 L394.962963,27.2364282 L394.965482,25.2364298 Z M386.965488,25.2263563 L387.965487,25.2276155 L391.965484,25.2326522 L392.965483,25.2339114 L392.962965,27.2339098 L391.962966,27.2326506 L387.962969,27.2276139 L386.96297,27.2263547 L386.965488,25.2263563 Z M378.965494,25.2162828 L379.965494,25.217542 L383.965491,25.2225787 L384.96549,25.2238379 L384.962971,27.2238363 L383.962972,27.2225771 L379.962975,27.2175404 L378.962976,27.2162812 L378.965494,25.2162828 Z M370.965501,25.2062093 L371.9655,25.2074685 L375.965497,25.2125052 L376.965496,25.2137644 L376.962978,27.2137628 L375.962978,27.2125037 L371.962982,27.2074669 L370.962982,27.2062077 L370.965501,25.2062093 Z M362.965507,25.1961358 L363.965506,25.197395 L367.965503,25.2024318 L368.965502,25.2036909 L368.962984,27.2036894 L367.962985,27.2024302 L363.962988,27.1973934 L362.962989,27.1961342 L362.965507,25.1961358 Z M354.965513,25.1860623 L355.965513,25.1873215 L359.96551,25.1923583 L360.965509,25.1936174 L360.96299,27.1936159 L359.962991,27.1923567 L355.962994,27.1873199 L354.962995,27.1860607 L354.965513,25.1860623 Z M346.96552,25.1759888 L347.965519,25.177248 L351.965516,25.1822848 L352.965515,25.183544 L352.962997,27.1835424 L351.962998,27.1822832 L347.963001,27.1772464 L346.963001,27.1759873 L346.96552,25.1759888 Z M338.965526,25.1659154 L339.965525,25.1671745 L343.965522,25.1722113 L344.965521,25.1734705 L344.963003,27.1734689 L343.963004,27.1722097 L339.963007,27.167173 L338.963008,27.1659138 L338.965526,25.1659154 Z M330.965533,25.1558419 L331.965532,25.1571011 L335.965529,25.1621378 L336.965528,25.163397 L336.963009,27.1633954 L335.96301,27.1621362 L331.963013,27.1570995 L330.963014,27.1558403 L330.965533,25.1558419 Z M322.965539,25.1457684 L323.965538,25.1470276 L327.965535,25.1520643 L328.965534,25.1533235 L328.963016,27.1533219 L327.963017,27.1520627 L323.96302,27.147026 L322.96302,27.1457668 L322.965539,25.1457684 Z M314.965545,25.1356949 L315.965544,25.1369541 L319.965541,25.1419908 L320.96554,25.14325 L320.963022,27.1432484 L319.963023,27.1419892 L315.963026,27.1369525 L314.963027,27.1356933 L314.965545,25.1356949 Z M306.965552,25.1256214 L307.965551,25.1268806 L311.965548,25.1319173 L312.965547,25.1331765 L312.963028,27.1331749 L311.963029,27.1319157 L307.963032,27.126879 L306.963033,27.1256198 L306.965552,25.1256214 Z M298.965558,25.1155479 L299.965557,25.1168071 L303.965554,25.1218438 L304.965553,25.123103 L304.963035,27.1231014 L303.963036,27.1218423 L299.963039,27.1168055 L298.96304,27.1155463 L298.965558,25.1155479 Z M290.965564,25.1054744 L291.965563,25.1067336 L295.96556,25.1117704 L296.965559,25.1130295 L296.963041,27.113028 L295.963042,27.1117688 L291.963045,27.106732 L290.963046,27.1054728 L290.965564,25.1054744 Z M282.965571,25.0954009 L283.96557,25.0966601 L287.965567,25.1016969 L288.965566,25.102956 L288.963047,27.1029545 L287.963048,27.1016953 L283.963051,27.0966585 L282.963052,27.0953993 L282.965571,25.0954009 Z M274.965577,25.0853274 L275.965576,25.0865866 L279.965573,25.0916234 L280.965572,25.0928826 L280.963054,27.092881 L279.963055,27.0916218 L275.963058,27.086585 L274.963059,27.0853259 L274.965577,25.0853274 Z M266.965583,25.075254 L267.965582,25.0765131 L271.965579,25.0815499 L272.965579,25.0828091 L272.96306,27.0828075 L271.963061,27.0815483 L267.963064,27.0765116 L266.963065,27.0752524 L266.965583,25.075254 Z M258.96559,25.0651805 L259.965589,25.0664397 L263.965586,25.0714764 L264.965585,25.0727356 L264.963066,27.072734 L263.963067,27.0714748 L259.96307,27.0664381 L258.963071,27.0651789 L258.96559,25.0651805 Z M250.965596,25.055107 L251.965595,25.0563662 L255.965592,25.0614029 L256.965591,25.0626621 L256.963073,27.0626605 L255.963074,27.0614013 L251.963077,27.0563646 L250.963078,27.0551054 L250.965596,25.055107 Z M242.965602,25.0450335 L243.965601,25.0462927 L247.965598,25.0513294 L248.965598,25.0525886 L248.963079,27.052587 L247.96308,27.0513278 L243.963083,27.0462911 L242.963084,27.0450319 L242.965602,25.0450335 Z M234.965609,25.03496 L235.965608,25.0362192 L239.965605,25.0412559 L240.965604,25.0425151 L240.963086,27.0425135 L239.963086,27.0412543 L235.963089,27.0362176 L234.96309,27.0349584 L234.965609,25.03496 Z M226.965615,25.0248865 L227.965614,25.0261457 L231.965611,25.0311824 L232.96561,25.0324416 L232.963092,27.03244 L231.963093,27.0311809 L227.963096,27.0261441 L226.963097,27.0248849 L226.965615,25.0248865 Z" transform="translate(319.600518, 26.603774) scale(-1, 1) translate(-319.600518, -26.603774) " fill="#2E2E2E" fill-rule="nonzero"></path>
                <path id="直线-4备份-5" d="M438.606809,311.121091 L439.526873,311.51286 L443.207127,313.079936 L444.127191,313.471705 L443.343653,315.311833 L442.423589,314.920064 L438.743335,313.352988 L437.823271,312.961219 L438.606809,311.121091 Z M431.2463,307.986939 L432.166364,308.378708 L435.846618,309.945784 L436.766682,310.337553 L435.983144,312.17768 L435.06308,311.785911 L431.382826,310.218835 L430.462762,309.827066 L431.2463,307.986939 Z M423.885791,304.852787 L424.805855,305.244556 L428.486109,306.811632 L429.406173,307.203401 L428.622635,309.043528 L427.702571,308.651759 L424.022317,307.084683 L423.102253,306.692914 L423.885791,304.852787 Z M416.525283,301.718635 L417.445346,302.110404 L421.125601,303.67748 L422.045664,304.069249 L421.262126,305.909376 L420.342063,305.517607 L416.661808,303.950531 L415.741745,303.558762 L416.525283,301.718635 Z M409.164774,298.584483 L410.084837,298.976252 L413.765092,300.543328 L414.685155,300.935097 L413.901617,302.775224 L412.981554,302.383455 L409.301299,300.816379 L408.381236,300.42461 L409.164774,298.584483 Z M401.804265,295.450331 L402.724328,295.8421 L406.404583,297.409176 L407.324647,297.800945 L406.541108,299.641072 L405.621045,299.249303 L401.94079,297.682227 L401.020727,297.290458 L401.804265,295.450331 Z M394.443756,292.316178 L395.36382,292.707947 L399.044074,294.275024 L399.964138,294.666793 L399.1806,296.50692 L398.260536,296.115151 L394.580282,294.548075 L393.660218,294.156306 L394.443756,292.316178 Z M387.083247,289.182026 L388.003311,289.573795 L391.683565,291.140871 L392.603629,291.53264 L391.820091,293.372768 L390.900027,292.980999 L387.219773,291.413922 L386.299709,291.022153 L387.083247,289.182026 Z M379.722738,286.047874 L380.642802,286.439643 L384.323056,288.006719 L385.24312,288.398488 L384.459582,290.238615 L383.539518,289.846846 L379.859264,288.27977 L378.9392,287.888001 L379.722738,286.047874 Z M372.36223,282.913722 L373.282293,283.305491 L376.962548,284.872567 L377.882611,285.264336 L377.099073,287.104463 L376.17901,286.712694 L372.498755,285.145618 L371.578692,284.753849 L372.36223,282.913722 Z M365.001721,279.77957 L365.921784,280.171339 L369.602039,281.738415 L370.522102,282.130184 L369.738564,283.970311 L368.818501,283.578542 L365.138246,282.011466 L364.218183,281.619697 L365.001721,279.77957 Z M357.641212,276.645418 L358.561275,277.037187 L362.24153,278.604263 L363.161594,278.996032 L362.378055,280.836159 L361.457992,280.44439 L357.777737,278.877314 L356.857674,278.485545 L357.641212,276.645418 Z M350.280703,273.511266 L351.200767,273.903035 L354.881021,275.470111 L355.801085,275.86188 L355.017547,277.702007 L354.097483,277.310238 L350.417229,275.743162 L349.497165,275.351393 L350.280703,273.511266 Z M342.920194,270.377113 L343.840258,270.768882 L347.520512,272.335958 L348.440576,272.727727 L347.657038,274.567855 L346.736974,274.176086 L343.05672,272.60901 L342.136656,272.217241 L342.920194,270.377113 Z M335.559685,267.242961 L336.479749,267.63473 L340.160003,269.201806 L341.080067,269.593575 L340.296529,271.433703 L339.376465,271.041934 L335.696211,269.474857 L334.776147,269.083088 L335.559685,267.242961 Z M328.199177,264.108809 L329.11924,264.500578 L332.799495,266.067654 L333.719558,266.459423 L332.93602,268.29955 L332.015957,267.907781 L328.335702,266.340705 L327.415639,265.948936 L328.199177,264.108809 Z M320.838668,260.974657 L321.758731,261.366426 L325.438986,262.933502 L326.359049,263.325271 L325.575511,265.165398 L324.655448,264.773629 L320.975193,263.206553 L320.05513,262.814784 L320.838668,260.974657 Z M313.478159,257.840505 L314.398222,258.232274 L318.078477,259.79935 L318.99854,260.191119 L318.215002,262.031246 L317.294939,261.639477 L313.614684,260.072401 L312.694621,259.680632 L313.478159,257.840505 Z M303.438632,247.044321 L301.087,252.564 L303.357459,253.531046 L304.277523,253.922815 L303.493985,255.762942 L302.573921,255.371173 L300.304,254.404 L297.953865,259.925211 L287.815358,248 L303.438632,247.044321 Z M306.11765,254.706353 L307.037714,255.098122 L310.717968,256.665198 L311.638032,257.056967 L310.854494,258.897094 L309.93443,258.505325 L306.254176,256.938249 L305.334112,256.54648 L306.11765,254.706353 Z" transform="translate(364.907679, 280.764151) scale(-1, 1) translate(-364.907679, -280.764151) " fill="#2E2E2E" fill-rule="nonzero"></path>
                <path id="直线-4备份-6" d="M472.679465,185.358491 L472.679465,191.358491 L470.679465,191.358491 L470.679465,185.358491 L472.679465,185.358491 Z M472.679465,177.358491 L472.679465,183.358491 L470.679465,183.358491 L470.679465,177.358491 L472.679465,177.358491 Z M472.679465,169.358491 L472.679465,175.358491 L470.679465,175.358491 L470.679465,169.358491 L472.679465,169.358491 Z M472.679465,161.358491 L472.679465,167.358491 L470.679465,167.358491 L470.679465,161.358491 L472.679465,161.358491 Z M472.679465,153.358491 L472.679465,159.358491 L470.679465,159.358491 L470.679465,153.358491 L472.679465,153.358491 Z M472.679465,145.358491 L472.679465,151.358491 L470.679465,151.358491 L470.679465,145.358491 L472.679465,145.358491 Z M472.679465,137.358491 L472.679465,143.358491 L470.679465,143.358491 L470.679465,137.358491 L472.679465,137.358491 Z M472.679465,129.358491 L472.679465,135.358491 L470.679465,135.358491 L470.679465,129.358491 L472.679465,129.358491 Z M472.679465,121.358491 L472.679465,127.358491 L470.679465,127.358491 L470.679465,121.358491 L472.679465,121.358491 Z M472.679465,113.358491 L472.679465,119.358491 L470.679465,119.358491 L470.679465,113.358491 L472.679465,113.358491 Z M472.679465,105.358491 L472.679465,111.358491 L470.679465,111.358491 L470.679465,105.358491 L472.679465,105.358491 Z M472.679465,97.3584906 L472.679465,103.358491 L470.679465,103.358491 L470.679465,97.3584906 L472.679465,97.3584906 Z M471.679465,81.6792453 L478.679465,95.6792453 L464.679465,95.6792453 L471.679465,81.6792453 Z" transform="translate(471.679465, 136.018868) scale(-1, 1) translate(-471.679465, -136.018868) " fill="#2E2E2E" fill-rule="nonzero"></path>
                <path id="直线-4备份-3" d="M251.722606,223.924528 L251.722,265.264 L257.722606,265.264151 L250.722606,279.264151 L243.722606,265.264151 L249.722,265.264 L249.722606,223.924528 L251.722606,223.924528 Z" transform="translate(250.722606, 252.094340) scale(-1, 1) translate(-250.722606, -252.094340) " fill="#2E2E2E" fill-rule="nonzero"></path>
                <path id="直线-4备份-4" d="M43.8062985,223.924528 L43.806,265.264 L49.8062985,265.264151 L42.8062985,279.264151 L35.8062985,265.264151 L41.806,265.264 L41.8062985,223.924528 L43.8062985,223.924528 Z" transform="translate(42.806299, 252.094340) scale(-1, 1) translate(-42.806299, -252.094340) " fill="#2E2E2E" fill-rule="nonzero"></path>
                <text id="USDT/ETH" font-family="PingFangSC-Light, PingFang SC" font-size="12" font-weight="300" fill="#2E2E2E">
                    <tspan x="12" y="350">USDT/ETH</tspan>
                </text>
                <text id="License" font-family="PingFangSC-Light, PingFang SC" font-size="12" font-weight="300" fill="#2E2E2E">
                    <tspan x="231" y="350">License</tspan>
                </text>
                <text id="合约" font-family="PingFangSC-Light, PingFang SC" font-size="12" font-weight="300" fill="#2E2E2E">
                    <tspan x="241" y="211">合约</tspan>
                </text>
                <text id="App" font-family="PingFangSC-Light, PingFang SC" font-size="12" font-weight="300" fill="#2E2E2E">
                    <tspan x="461" y="280">App</tspan>
                </text>
                <rect id="矩形" fill="#F2BE52" x="258" y="299" width="14" height="19"></rect>
                <g id="编组-10" transform="translate(235.000000, 302.000000)" stroke="#2E2E2E" stroke-linecap="round" stroke-width="2">
                    <line x1="0.5" y1="0.5" x2="16.5" y2="0.5" id="直线-5"></line>
                    <line x1="0.5" y1="6.5" x2="16.5" y2="6.5" id="直线-5备份"></line>
                    <line x1="0.5" y1="13.5" x2="16.5" y2="13.5" id="直线-5备份-2"></line>
                </g>
            </g>
        </g>
    </g>
</svg>