<?xml version="1.0" encoding="UTF-8"?>
<svg width="172px" height="121px" viewBox="0 0 172 121" version="1.1" xmlns="http://www.w3.org/2000/svg" xmlns:xlink="http://www.w3.org/1999/xlink">
    <title>miner_img </title>
    <g id="页面-1" stroke="none" stroke-width="1" fill="none" fill-rule="evenodd">
        <g id="英文版" transform="translate(-793.000000, -4625.000000)">
            <g id="编组-39" transform="translate(793.000000, 4625.000000)">
                <g id="编组-28" transform="translate(19.000000, 16.000000)">
                    <circle id="椭圆形" stroke="#2E2E2E" stroke-width="2" fill="#FFFFFF" cx="70.8309083" cy="62" r="26"></circle>
                    <circle id="椭圆形" stroke="#2E2E2E" cx="35.8309083" cy="51" r="3.5"></circle>
                    <circle id="椭圆形备份-57" stroke="#2E2E2E" cx="39.8309083" cy="34" r="3.5"></circle>
                    <circle id="椭圆形备份-58" stroke="#2E2E2E" cx="62.8309083" cy="17" r="4.5"></circle>
                    <circle id="椭圆形备份-60" stroke="#2E2E2E" cx="69.3309083" cy="27.5" r="3"></circle>
                    <circle id="椭圆形备份-59" stroke="#2E2E2E" cx="57.8309083" cy="31" r="3.5"></circle>
                    <circle id="椭圆形备份-56" stroke="#2E2E2E" stroke-width="2" cx="70.3309083" cy="62.5" r="21.5"></circle>
                    <path d="M41.2186516,8.48665305 C46.3311313,15.0966505 48.1911334,26.144591 46.7986579,41.6304745 C45.6499555,34.2618522 42.8332555,28.086986 38.3485579,23.1058757 L38.1987402,22.9432768 L9.14192574,45.6452329 L4.32974021,39.4859163 L32.0926888,17.7953644 C28.9976424,15.8451049 25.5560063,14.5229572 21.7677806,13.8289215 C29.6225481,3.65741179 36.1061718,1.87665564 41.2186516,8.48665305 Z" id="形状结合" fill="#FF995B" transform="translate(25.787758, 25.113255) rotate(-14.000000) translate(-25.787758, -25.113255) "></path>
                    <path d="M67.425956,62.9001195 L72.0851114,64.0804146 C72.7637242,64.263974 73.3374614,64.719622 73.6712069,65.3402936 C74.0049524,65.9609652 74.0695691,66.6920676 73.8498448,67.3618913 C73.4322723,69.0498913 71.7792163,69.4216671 70.9614893,69.4216671 C70.84085,69.4254942 70.7202108,69.413552 70.6026508,69.3863477 L66.1025553,68.2650259 L67.425956,62.9001195 Z M69.3143618,55.1507847 L72.296793,55.9004228 C72.808625,56.0302654 75.1910312,57.0807179 74.6497862,59.1995592 C74.3769348,60.4086262 73.2645723,61.2362806 72.032168,61.1472905 C71.7889134,61.1467372 71.5463941,61.1210084 71.3085166,61.0705653 L68.0201903,60.244202 L69.3143618,55.1507847 Z M61.572817,67.2320487 C61.5317307,67.4033432 61.5082003,67.50363 61.2728505,67.4446106 L58.5904318,66.7716515 L57.9021218,69.5455617 L62.8493867,70.7851067 L61.8492991,74.8160371 L64.4905856,75.477054 L65.4907191,71.4461236 L67.131918,71.8591208 L66.1317844,75.8842876 L68.6436997,76.5157487 L69.6497159,72.4848644 L71.5379379,72.9628752 C72.7969517,73.2757239 77.5675548,73.3346049 78.5971473,69.1502242 C79.2764495,66.846394 78.2844045,64.3768947 76.2028381,63.1892683 C74.1212716,62.0017341 79.144137,62.2863181 79.5559648,59.5831851 C79.9677927,56.8800521 78.0912439,55.6230318 77.0029633,54.9325052 C76.1468155,54.4364659 75.236989,54.0403906 74.2910856,53.7520257 L75.3380962,49.5380891 L72.9204403,48.9478955 L71.885149,53.1382243 L69.9437998,52.6542655 L71.0026215,48.446277 L68.5555527,47.8560372 L67.5083583,52.0642102 L62.3905441,50.7833977 L61.7670806,53.2621189 L64.5729879,53.9645415 C64.8553986,54.0353648 64.820011,54.1771035 64.7965266,54.2714883 L61.572817,67.2320487 Z" id="Fill-1" fill="#2E2E2E" transform="translate(68.758073, 62.185893) rotate(-40.000000) translate(-68.758073, -62.185893) "></path>
                    <polygon id="路径-5" stroke="#2E2E2E" stroke-width="2" fill="#FFFFFF" points="28.8309083 84.8529412 43.8887323 73.5735294 72.6897555 81.6762321 86.7416837 73.5735294 101.148185 38 108.830908 41.4705882 108.830908 97 28.8309083 97"></polygon>
                </g>
            </g>
        </g>
    </g>
</svg>