<?xml version="1.0" encoding="UTF-8"?>
<svg width="27px" height="26px" viewBox="0 0 27 26" version="1.1" xmlns="http://www.w3.org/2000/svg" xmlns:xlink="http://www.w3.org/1999/xlink">
    <title>android_img备份 2</title>
    <defs>
        <polygon id="path-1" points="0 0 22.265418 0 22.265418 26 0 26"></polygon>
    </defs>
    <g id="页面-1" stroke="none" stroke-width="1" fill="none" fill-rule="evenodd">
        <g id="英文版" transform="translate(-154.000000, -487.000000)">
            <g id="android" transform="translate(144.000000, 479.000000)">
                <g id="编组-23" transform="translate(10.000000, 8.000000)">
                    <g id="编组" transform="translate(2.055556, 0.000000)">
                        <mask id="mask-2" fill="white">
                            <use xlink:href="#path-1"></use>
                        </mask>
                        <g id="Clip-2"></g>
                        <path d="M12.4517671,6.06709763 L13.3376356,6.06709763 L13.3376356,4.37082712 L12.4517671,4.37082712 L12.4517671,6.06709763 Z M8.90917914,6.06709763 L9.79416174,6.06709763 L9.79416174,4.37082712 L8.90917914,4.37082712 L8.90917914,6.06709763 Z M15.0526769,2.43666501 L16.5161316,0.968804906 C16.7597455,0.689540859 16.7597455,0.427515332 16.5161316,0.182728328 C16.2725178,-0.0611967512 16.0111866,-0.0611967512 15.7312522,0.182728328 L14.0605043,1.86003647 C13.153375,1.37132438 12.1780338,1.12653738 11.1318231,1.12653738 C10.0519495,1.12653738 9.05977678,1.37132438 8.15353334,1.86003647 L6.48012782,0.182728328 C6.23651399,-0.0611967512 5.97606866,-0.0611967512 5.69702009,0.182728328 C5.41797153,0.427515332 5.41797153,0.689540859 5.69702009,0.968804906 L7.1604748,2.43666501 C5.34887379,3.72869219 4.44174448,5.52666998 4.44174448,7.83232223 L17.8236735,7.83232223 C17.8236735,5.56200895 16.9005986,3.76403116 15.0526769,2.43666501 L15.0526769,2.43666501 Z M21.7365545,9.14331179 C21.3822071,8.83388032 20.9649631,8.67959197 20.4821648,8.67959197 C19.9975947,8.67873363 19.5794648,8.8330184 19.2268891,9.14331179 C18.8725418,9.45360517 18.6971398,9.81906183 18.6971398,10.2431295 L18.6971398,17.5203713 C18.6971398,17.9763302 18.8725418,18.3504061 19.2268891,18.643461 C19.5794648,18.9373778 19.9975947,19.0839052 20.4821648,19.0839052 C20.9658489,19.0839052 21.383093,18.9373778 21.7365545,18.643461 C22.0891302,18.3504061 22.2654213,17.9763302 22.2654213,17.5203713 L22.2654213,10.2431295 C22.2663038,9.81906183 22.090016,9.45274325 21.7365545,9.14331179 L21.7365545,9.14331179 Z M4.45148903,18.2426653 C4.45148903,19.1950937 5.24434131,19.9665175 6.22322596,19.9665175 L6.22322596,24.6209183 C6.22322596,25.3828609 6.85839365,26 7.64150137,26 L8.37765807,26 C9.15987992,26 9.79416174,25.3828609 9.79416174,24.6209183 L9.79416174,19.9665175 L12.4517671,19.9665175 L12.4517671,24.6209183 C12.4517671,25.3828609 13.0869348,26 13.8700425,26 L14.6061992,26 C15.389307,26 16.0227029,25.3828609 16.0227029,24.6209183 L16.0227029,19.9665175 C17.0024734,19.9665175 17.7944398,19.1950937 17.7944398,18.2426653 L17.7944398,8.68045748 L4.45148903,8.68045748 L4.45148903,18.2426653 Z M1.78413909,8.67959197 C1.30045491,8.67873363 0.88232499,8.8330184 0.529749342,9.14331179 C0.177173693,9.45360517 0,9.81906183 0,10.2431295 L0,17.5203713 C0,17.9763302 0.177173693,18.3504061 0.529749342,18.643461 C0.88232499,18.9373778 1.30045491,19.0839052 1.78413909,19.0839052 C2.26782327,19.0839052 2.68595318,18.9373778 3.0394147,18.643461 C3.39199035,18.3504061 3.5682815,17.9763302 3.5682815,17.5203713 L3.5682815,10.2431295 C3.56916404,9.81906183 3.39287622,9.45274325 3.0394147,9.14331179 C2.68506731,8.83388032 2.26605153,8.67959197 1.78413909,8.67959197 L1.78413909,8.67959197 Z" id="Fill-1" fill="#FFFFFF" mask="url(#mask-2)"></path>
                    </g>
                </g>
            </g>
        </g>
    </g>
</svg>