<?xml version="1.0" encoding="UTF-8"?>
<svg width="389px" height="442px" viewBox="0 0 389 442" version="1.1" xmlns="http://www.w3.org/2000/svg" xmlns:xlink="http://www.w3.org/1999/xlink">
    <title>economic M01_img</title>
    <defs>
        <path d="M20.5,0 C31.8218374,-2.07978778e-15 41,9.17816263 41,20.5 L41,22.10185 L41,22.10185 L0,22.10185 L0,20.5 C-1.38652519e-15,9.17816263 9.17816263,2.07978778e-15 20.5,0 Z" id="path-1"></path>
        <path d="M20.5,0 C31.8218374,-2.07978778e-15 41,9.17816263 41,20.5 L41,21.9550743 L41,21.9550743 L0,21.9550743 L0,20.5 C-1.38652519e-15,9.17816263 9.17816263,2.07978778e-15 20.5,0 Z" id="path-3"></path>
        <path d="M23.5,0 C36.4786916,-2.38414697e-15 47,10.5213084 47,23.5 L47,25.735745 L47,25.735745 L0,25.735745 L0,23.5 C-5.14214499e-15,10.5213084 10.5213084,2.38414697e-15 23.5,0 Z" id="path-5"></path>
    </defs>
    <g id="页面-1" stroke="none" stroke-width="1" fill="none" fill-rule="evenodd">
        <g id="英文版" transform="translate(-834.000000, -2923.000000)">
            <g id="economic-M01_img" transform="translate(834.000000, 2923.000000)">
                <path id="直线-4备份-3" d="M197.046182,206.671518 L199.046122,206.687032 L199.038365,207.687002 L198.826,235.008 L204.826248,235.05472 L197.71786,249 L190.826669,234.946122 L196.826,234.992 L197.038425,207.671488 L197.046182,206.671518 Z" transform="translate(198.358930, 228.000000) scale(-1, 1) translate(-198.358930, -228.000000) " fill="#2E2E2E" fill-rule="nonzero"></path>
                <g id="编组-12" transform="translate(174.000000, 253.000000)">
                    <rect id="矩形" stroke="#2E2E2E" stroke-width="2" x="1" y="1" width="46.921484" height="34.6792453"></rect>
                    <rect id="矩形" fill="#F2BE52" x="30" y="7" width="14" height="19"></rect>
                    <g id="编组-10" transform="translate(7.000000, 10.000000)" stroke="#2E2E2E" stroke-linecap="round" stroke-width="2">
                        <line x1="0.5" y1="0.5" x2="16.5" y2="0.5" id="直线-5"></line>
                        <line x1="0.5" y1="6.5" x2="16.5" y2="6.5" id="直线-5备份"></line>
                        <line x1="0.5" y1="13.5" x2="16.5" y2="13.5" id="直线-5备份-2"></line>
                    </g>
                </g>
                <path id="直线-4备份-8" d="M214.629023,72.3255783 L215.510543,72.7977257 L272.848,103.508 L275.681617,98.2192992 L284.71786,111 L269.071554,110.560574 L271.904,105.271 L214.566248,74.5607649 L213.684728,74.0886175 L214.629023,72.3255783 Z" transform="translate(249.858930, 92.000000) scale(-1, 1) translate(-249.858930, -92.000000) " fill="#2E2E2E" fill-rule="nonzero"></path>
                <path id="直线-4备份-9" d="M104.629023,72.3255783 L105.510543,72.7977257 L162.848,103.508 L165.681617,98.2192992 L174.71786,111 L159.071554,110.560574 L161.904,105.271 L104.566248,74.5607649 L103.684728,74.0886175 L104.629023,72.3255783 Z" fill="#2E2E2E" fill-rule="nonzero"></path>
                <path id="直线-4备份-7" d="M197.043813,309.673857 L199.043784,309.684663 L199.038381,310.684649 L198.793,356.005 L204.793405,356.038028 L197.71786,370 L190.793609,355.962381 L196.793,355.995 L197.03841,310.673842 L197.043813,309.673857 Z" transform="translate(198.358930, 340.000000) scale(-1, 1) translate(-198.358930, -340.000000) " fill="#2E2E2E" fill-rule="nonzero"></path>
                <g id="编组-12" transform="translate(174.000000, 253.000000)">
                    <rect id="矩形" stroke="#2E2E2E" stroke-width="2" x="1" y="1" width="46.921484" height="34.6792453"></rect>
                    <rect id="矩形" fill="#F2BE52" x="30" y="7" width="14" height="19"></rect>
                    <g id="编组-10" transform="translate(7.000000, 10.000000)" stroke="#2E2E2E" stroke-linecap="round" stroke-width="2">
                        <line x1="0.5" y1="0.5" x2="16.5" y2="0.5" id="直线-5"></line>
                        <line x1="0.5" y1="6.5" x2="16.5" y2="6.5" id="直线-5备份"></line>
                        <line x1="0.5" y1="13.5" x2="16.5" y2="13.5" id="直线-5备份-2"></line>
                    </g>
                </g>
                <text id="License" font-family="PingFangSC-Light, PingFang SC" font-size="12" font-weight="300" fill="#2E2E2E">
                    <tspan x="177" y="306">License</tspan>
                </text>
                <text id="blockchain-2" font-family="PingFangSC-Light, PingFang SC" font-size="12" font-weight="300" fill="#2E2E2E">
                    <tspan x="163" y="438">blockchain 2</tspan>
                </text>
                <text id="blockchain-1" font-family="PingFangSC-Light, PingFang SC" font-size="12" font-weight="300" fill="#2E2E2E">
                    <tspan x="0" y="438">blockchain 1</tspan>
                </text>
                <text id="blockchain-3" font-family="PingFangSC-Light, PingFang SC" font-size="12" font-weight="300" fill="#2E2E2E">
                    <tspan x="319" y="438">blockchain 3</tspan>
                </text>
                <text id="Token" font-family="PingFangSC-Light, PingFang SC" font-size="12" font-weight="300" fill="#2E2E2E">
                    <tspan x="74" y="68">Token</tspan>
                </text>
                <g id="编组-11" transform="translate(61.000000, 7.000000)" stroke="#2E2E2E" stroke-width="2">
                    <rect id="矩形" x="1" y="1" width="57.4531924" height="45.5471698"></rect>
                    <line x1="6.19197584" y1="29.785967" x2="6.19197584" y2="40.4721083" id="直线-3" stroke-linecap="round"></line>
                    <line x1="14.1919758" y1="31.410967" x2="14.1919758" y2="40.4721083" id="直线-3备份" stroke-linecap="round"></line>
                    <line x1="22.1919758" y1="28.0373257" x2="22.1919758" y2="40.4721083" id="直线-3备份-2" stroke-linecap="round"></line>
                    <line x1="30.1919758" y1="30.598467" x2="30.1919758" y2="40.4721083" id="直线-3备份-3" stroke-linecap="round"></line>
                    <line x1="46.1919758" y1="30.598467" x2="46.1919758" y2="40.4721083" id="直线-3备份-5" stroke-linecap="round"></line>
                    <line x1="38.1919758" y1="28.0373257" x2="38.1919758" y2="40.4721083" id="直线-3备份-4" stroke-linecap="round"></line>
                    <line x1="54.1919758" y1="28.0373257" x2="54.1919758" y2="40.4721083" id="直线-3备份-6" stroke-linecap="round"></line>
                    <polyline id="路径" stroke-linecap="round" points="6.19197584 15.9810112 24.9567717 21.6796515 32.2250113 12.5682701 40.1626317 17.0429617 51.5177214 11.4012678"></polyline>
                    <polyline id="路径" stroke-linecap="round" transform="translate(49.804429, 12.222115) rotate(2.000000) translate(-49.804429, -12.222115) " points="47.8783286 9.81785609 51.7305288 10.6263734 51.7301991 14.6263734"></polyline>
                </g>
                <path id="直线-4备份-7" d="M197.043813,309.673857 L199.043784,309.684663 L199.038381,310.684649 L198.793,356.005 L204.793405,356.038028 L197.71786,370 L190.793609,355.962381 L196.793,355.995 L197.03841,310.673842 L197.043813,309.673857 Z" transform="translate(198.358930, 340.000000) scale(-1, 1) translate(-198.358930, -340.000000) " fill="#2E2E2E" fill-rule="nonzero"></path>
                <g id="编组-13" transform="translate(174.000000, 374.000000)">
                    <rect id="矩形" fill="#25EA3F" x="12" y="29" width="5" height="9"></rect>
                    <rect id="矩形备份-12" fill="#25EA3F" x="23" y="29" width="5" height="9"></rect>
                    <rect id="矩形备份-13" fill="#25EA3F" x="34" y="29" width="5" height="9"></rect>
                    <path d="M36.7056823,1 L36.7046823,6 L42.7057353,6 L42.7048529,12 L49,12 L49,44 L1,44 L1,12 L6.70485295,12 L6.7057353,6 L12.7046824,6 L12.7056824,1 L36.7056823,1 Z" id="形状结合" stroke="#020000" stroke-width="2"></path>
                    <rect id="矩形" stroke="#020000" stroke-width="2" x="6" y="17" width="38" height="22"></rect>
                </g>
                <g id="编组-14" transform="translate(11.000000, 374.000000)">
                    <rect id="矩形备份-14" fill="#25EA3F" x="12" y="29" width="5" height="9"></rect>
                    <rect id="矩形备份-15" fill="#25EA3F" x="23" y="29" width="5" height="9"></rect>
                    <rect id="矩形备份-16" fill="#25EA3F" x="34" y="29" width="5" height="9"></rect>
                    <path d="M36.7056823,1 L36.7046823,6 L42.7057353,6 L42.7048529,12 L49,12 L49,44 L1,44 L1,12 L6.70485295,12 L6.7057353,6 L12.7046824,6 L12.7056824,1 L36.7056823,1 Z" id="形状结合备份" stroke="#020000" stroke-width="2"></path>
                    <rect id="矩形备份-17" stroke="#020000" stroke-width="2" x="6" y="17" width="38" height="22"></rect>
                </g>
                <g id="编组-15" transform="translate(329.000000, 374.000000)">
                    <rect id="矩形备份-18" fill="#25EA3F" x="12" y="29" width="5" height="9"></rect>
                    <rect id="矩形备份-19" fill="#25EA3F" x="23" y="29" width="5" height="9"></rect>
                    <rect id="矩形备份-20" fill="#25EA3F" x="34" y="29" width="5" height="9"></rect>
                    <path d="M36.7056823,1 L36.7046823,6 L42.7057353,6 L42.7048529,12 L49,12 L49,44 L1,44 L1,12 L6.70485295,12 L6.7057353,6 L12.7046824,6 L12.7056824,1 L36.7056823,1 Z" id="形状结合备份-2" stroke="#020000" stroke-width="2"></path>
                    <rect id="矩形备份-21" stroke="#020000" stroke-width="2" x="6" y="17" width="38" height="22"></rect>
                </g>
                <g id="编组-9" transform="translate(248.000000, 0.000000)">
                    <g id="编组-8备份-2" transform="translate(0.000000, 10.000000)">
                        <g id="椭圆形" transform="translate(0.000000, 18.898150)">
                            <mask id="mask-2" fill="white">
                                <use xlink:href="#path-1"></use>
                            </mask>
                            <use id="蒙版" fill="#25A0EA" xlink:href="#path-1"></use>
                            <ellipse stroke="#2E2E2E" fill="#F8FCFD" mask="url(#mask-2)" cx="20.2813973" cy="0.396187008" rx="7.6966269" ry="7.60067805"></ellipse>
                        </g>
                        <g id="编组-7" transform="translate(11.038462, 0.000000)">
                            <rect id="矩形" stroke="#2E2E2E" fill="#F8FCFD" x="4.34054332" y="3.14818621" width="13.7179487" height="19.9860745" rx="6.85897436"></rect>
                            <path d="M9.69343891,0 C11.663056,0 13.3917026,1.02977611 14.3684293,2.57934057 C15.68927,2.79481262 16.6968326,3.93942598 16.6968326,5.31892534 C16.6968326,6.61192216 15.8116682,7.69856682 14.6131738,8.00810101 C13.7007683,9.7943034 11.8402415,11.0176891 9.69343891,11.0176891 C9.06035392,11.0176891 8.45216464,10.9112985 7.88583858,10.7154529 C7.59593867,10.8181082 7.28302288,10.8740627 6.95701357,10.8740627 C6.93290532,10.8740627 6.90886868,10.8737567 6.88490731,10.8731484 C6.93285745,11.0964644 6.95701357,11.329644 6.95701357,11.5684549 C6.95701357,13.4859659 5.39963304,15.0404157 3.47850679,15.0404157 C1.55738054,15.0404157 0,13.4859659 0,11.5684549 C0,10.3995612 0.578720737,9.36558056 1.465777,8.73638946 C1.41715795,8.53160123 1.39140271,8.3170497 1.39140271,8.09649402 C1.39140271,6.56248519 2.63730714,5.31892534 4.17420814,5.31892534 C4.17555542,5.31892534 4.17690247,5.31892629 4.17824929,5.3189282 C4.27796622,2.36416542 6.70909182,0 9.69343891,0 Z" id="形状结合" fill="#2E2E2E"></path>
                        </g>
                    </g>
                    <g id="编组-8备份-3" transform="translate(41.000000, 11.000000)">
                        <g id="椭圆形" transform="translate(0.000000, 18.044926)">
                            <mask id="mask-4" fill="white">
                                <use xlink:href="#path-3"></use>
                            </mask>
                            <use id="蒙版" fill="#6B25EA" xlink:href="#path-3"></use>
                            <ellipse stroke="#2E2E2E" fill="#F8FCFD" mask="url(#mask-4)" cx="20.2813973" cy="0.393555979" rx="7.6966269" ry="7.54688245"></ellipse>
                        </g>
                        <g id="编组-7" transform="translate(10.656093, 0.000000)">
                            <rect id="矩形" stroke="#2E2E2E" fill="#F8FCFD" x="1.56906528" y="2.40287584" width="13.7179487" height="19.8467086" rx="6.85897436"></rect>
                            <path d="M4.82855486,1.33272559 C4.82855486,-0.953006907 14.2435867,0.216451748 15.9979129,1.05966379 C17.752239,1.90287584 19.3280156,5.12165871 19.3280156,7.40739121 C19.3280156,9.69312371 17.5246523,10.5774173 15.2193008,10.5774173 C14.8197716,10.5774173 14.2466409,10.3684074 13.5720804,10.0109349 C13.2049757,10.0525816 12.8271314,10.0741253 12.4411916,10.0741253 C8.95754937,10.0741253 6.13349933,8.31883574 6.13349933,6.15357632 L6.13585153,6.20967428 C4.70098067,8.03440237 2.41736168,10.0741253 1.4027301,10.0741253 C-0.134170898,10.0741253 -0.373283402,9.63303222 0.51472335,8.05925388 C1.4027301,6.48547554 1.61822713,2.3627297 3.32580089,2.15589621 C3.87172135,2.08977044 4.48379185,2.08540585 5.06391601,2.15986528 C4.91181358,1.84474275 4.82855486,1.56467308 4.82855486,1.33272559 Z" id="形状结合" fill="#2E2E2E"></path>
                        </g>
                    </g>
                    <g id="编组-8" transform="translate(18.000000, 0.000000)">
                        <g id="椭圆形" transform="translate(0.000000, 26.264255)">
                            <mask id="mask-6" fill="white">
                                <use xlink:href="#path-5"></use>
                            </mask>
                            <use id="蒙版" fill="#EA6825" xlink:href="#path-5"></use>
                            <ellipse stroke="#2E2E2E" fill="#F8FCFD" mask="url(#mask-6)" cx="23.2494067" cy="0.461326443" rx="8.89613328" ry="8.93255814"></ellipse>
                        </g>
                        <g id="编组-7" transform="translate(10.721229, 0.000000)">
                            <rect id="矩形" stroke="#2E2E2E" fill="#F8FCFD" x="4.82252725" y="5.3372093" width="15.565035" height="22.7560724" rx="7"></rect>
                            <path d="M18.7922666,0 C20.5220469,0 21.924311,1.40770004 21.924311,3.14418605 C21.924311,3.28194196 21.9154861,3.41762873 21.898373,3.55070771 C22.848613,4.08942257 23.4903332,5.11366592 23.4903332,6.28837209 C23.4903332,6.37785011 23.48661,6.46645516 23.4793105,6.55403961 C25.3096099,7.1969213 26.6223776,8.94688526 26.6223776,11.0046512 C26.6223776,13.6093802 24.5189815,15.7209302 21.924311,15.7209302 C19.3296404,15.7209302 17.2262443,13.6093802 17.2262443,11.0046512 C17.2262443,10.8585724 17.23286,10.7140447 17.2458068,10.5713537 C16.7811288,10.8470475 16.2390095,11.0046512 15.6602221,11.0046512 C14.7246207,11.0046512 13.8848341,10.5928288 13.3109239,9.93990483 C12.7375436,10.5928288 11.8977569,11.0046512 10.9621555,11.0046512 C10.9621555,12.7411372 9.55989144,14.1488372 7.83011107,14.1488372 C7.80363825,14.1488372 7.77724215,14.1485075 7.75092661,14.147852 C7.80300472,14.4013846 7.83011107,14.6649564 7.83011107,14.9348837 C7.83011107,17.1054912 6.077281,18.8651163 3.91505553,18.8651163 C1.75283007,18.8651163 0,17.1054912 0,14.9348837 C0,13.6117293 0.651325787,12.4412899 1.64967576,11.7290468 C1.59499764,11.4970881 1.56602221,11.2542665 1.56602221,11.0046512 C1.56602221,9.26816516 2.96828627,7.86046512 4.69806664,7.86046512 C4.84701324,7.86046512 4.9935315,7.87090245 5.13693523,7.89108829 C4.85779887,7.42306857 4.69806664,6.87444637 4.69806664,6.28837209 C4.69806664,4.55188609 6.10033069,3.14418605 7.83011107,3.14418605 C7.96767981,3.14418605 8.10317702,3.15308969 8.23606208,3.17035426 C8.77142347,2.21647393 9.79182846,1.57209302 10.9621555,1.57209302 C11.8977569,1.57209302 12.7375436,1.98391543 13.3114537,2.63683936 C13.8848341,1.98391543 14.7246207,1.57209302 15.6602221,1.57209302 C15.7975503,1.57209302 15.9328142,1.58096556 16.0654761,1.59817075 C16.6015345,0.644380909 17.6219395,0 18.7922666,0 Z" id="形状结合" fill="#2E2E2E"></path>
                        </g>
                    </g>
                </g>
                <g id="编组" transform="translate(198.896462, 149.849057) rotate(-10.000000) translate(-198.896462, -149.849057) translate(169.000000, 122.000000)">
                    <path d="M47.3789819,1 C48.2810678,1 49.0983685,1.35909979 49.6897185,1.94173219 C50.2756535,2.5190294 50.6393443,3.31621223 50.6393443,4.19755671 L50.6393443,4.19755671 L50.6393443,54.6981132 L12.502157,54.6981132 C11.5757531,54.6981132 10.7364059,54.3292531 10.1290843,53.7308846 C9.52717795,53.1378514 9.15358067,52.3189474 9.15358067,51.413643 L9.15358067,51.413643 L9.15358067,1 Z" id="Stroke-1" stroke="#000000" stroke-width="2"></path>
                    <ellipse id="椭圆形" fill="#1557EF" cx="42.8062985" cy="42.7924528" rx="3.39732528" ry="3.39622642"></ellipse>
                    <ellipse id="椭圆形备份" fill="#25EA3F" cx="35.8379998" cy="36.9848078" rx="3.39732528" ry="3.39622642"></ellipse>
                    <path d="M17.9305812,49.3 L17.9305812,49.9037736 C17.9305812,52.5714178 15.9869281,54.7339623 13.5893011,54.7339623 L22.0392927,54.7339623 L55.9943049,54.7339623 C58.0922285,54.7339623 59.7929249,52.8417358 59.7929249,50.5075472 L17.9305812,49.3 Z" id="Stroke-3" stroke="#000000" stroke-width="2" fill="#FFFFFF"></path>
                    <path d="M9.51251079,5.43396226 C9.51251079,2.43286253 7.3830673,0 4.75625539,0 C2.12944349,0 0,2.43286253 0,5.43396226 L9.51251079,5.43396226 Z" id="Fill-5" fill="#000000"></path>
                    <polygon id="矩形" fill="#000000" points="4.75625539 -1.11985892e-13 9.51251079 0 9.51251079 4.0754717 4.75625539 4.0754717"></polygon>
                    <line x1="14.5358929" y1="12.8095248" x2="44.1416509" y2="8.09001004" id="直线-2" stroke="#2E2E2E" stroke-width="2" stroke-linecap="round" transform="translate(29.338772, 10.449767) rotate(10.000000) translate(-29.338772, -10.449767) "></line>
                    <line x1="14.708447" y1="22.3493847" x2="44.314205" y2="17.6298699" id="直线-2备份" stroke="#2E2E2E" stroke-width="2" stroke-linecap="round" transform="translate(29.511326, 19.989627) rotate(10.000000) translate(-29.511326, -19.989627) "></line>
                    <line x1="14.8810011" y1="31.8892446" x2="44.4867591" y2="27.1697298" id="直线-2备份-2" stroke="#2E2E2E" stroke-width="2" stroke-linecap="round" transform="translate(29.683880, 29.529487) rotate(10.000000) translate(-29.683880, -29.529487) "></line>
                </g>
                <text id="deposit" font-family="PingFangSC-Light, PingFang SC" font-size="12" font-weight="300" fill="#858585">
                    <tspan x="85" y="99">deposit</tspan>
                </text>
                <text id="smart-contract" font-family="PingFangSC-Light, PingFang SC" font-size="12" font-weight="300" fill="#2E2E2E">
                    <tspan x="159" y="200">smart contract</tspan>
                </text>
                <text id="generate" font-family="PingFangSC-Light, PingFang SC" font-size="12" font-weight="300" fill="#858585">
                    <tspan x="209" y="228">generate</tspan>
                </text>
                <text id="mapping" font-family="PingFangSC-Light, PingFang SC" font-size="12" font-weight="300" fill="#858585">
                    <tspan x="203" y="329">mapping</tspan>
                </text>
                <text id="price:-Day/Token" font-family="PingFangSC-Light, PingFang SC" font-size="12" font-weight="300" fill="#858585">
                    <tspan x="256" y="103">price: Day/Token</tspan>
                </text>
                <path id="路径-3" d="M355.5,337.98043 L355.5,351.999 L361.5,352 L354.5,366 L347.5,352 L353.5,351.999 L353.5,339.98 L35,339.98 L35,351.999 L41,352 L34,366 L27,352 L33,351.999 L33,337.98043 L355.5,337.98043 Z" fill="#2E2E2E" fill-rule="nonzero"></path>
            </g>
        </g>
    </g>
</svg>