<svg id="图层_1" data-name="图层 1" xmlns="http://www.w3.org/2000/svg" viewBox="0 0 559.78 307.12"><defs><style>.cls-1,.cls-2,.cls-3,.cls-4,.cls-5{isolation:isolate;}.cls-2{font-size:12px;fill:#2e2e2e;font-family:PingFangSC-Regular-GBpc-EUC-H, PingFang SC;}.cls-3,.cls-4,.cls-5{font-size:42px;}.cls-3,.cls-7{fill:#ffc710;}.cls-3,.cls-5{font-family:PingFangSC-Medium-GBpc-EUC-H, PingFang SC;}.cls-4,.cls-8{fill:#1557ef;}.cls-4{font-family:PingFangHK-Medium-B5pc-H, PingFang HK;}.cls-5,.cls-6{fill:#25ea3f;}.cls-6,.cls-7,.cls-8{stroke:#fff;stroke-width:6px;fill-rule:evenodd;}.cls-9{fill:#f8fcfd;}.cls-10{fill:none;stroke:#2e2e2e;}</style></defs><g id="页面-1"><g id="首页"><g id="intro03_img" data-name="intro03 img"><g id="DAO40_" data-name="DAO40%" class="cls-1"><text class="cls-2" transform="translate(434.64 238.12)">DAO</text><text class="cls-3" transform="translate(460.2 238.12)">40%</text></g><g id="团队-20_" data-name="团队-20%" class="cls-1"><text class="cls-2" transform="translate(435.64 36.12)">团队 </text><text class="cls-4" transform="translate(463.64 36.12)">20%</text></g><g id="挖矿-40_" data-name="挖矿-40%" class="cls-1"><text class="cls-2" transform="translate(5.64 141.12)">挖矿 </text><text class="cls-5" transform="translate(33.64 141.12)">40%</text></g><g id="编组"><path id="Fill-5" class="cls-6" d="M269,179.88V45A134.94,134.94,0,0,0,134,179.88c0,44.69,19.46,82.85,55.65,109.12Z" transform="translate(-0.36 -10.88)"/><path id="Fill-3" class="cls-7" d="M268.44,179.78,189,289.17a135.11,135.11,0,0,0,188.78-29.92C404.1,223,410.81,180.61,397,138Z" transform="translate(-0.36 -10.88)"/><path id="Fill-1备份" class="cls-8" d="M269,180l128-41.72C378.63,81.56,328.47,45,269,45Z" transform="translate(-0.36 -10.88)"/></g><circle id="椭圆形" class="cls-9" cx="268.64" cy="169.12" r="49"/><polyline id="路径-2" class="cls-10" points="317.78 228.19 401.73 283.66 559.78 283.66"/><polyline id="路径-2备份-2" class="cls-10" points="196 157.23 98 180.66 0 180.66"/><polyline id="路径-2备份" class="cls-10" points="317.78 101.62 400.69 82.66 556.78 82.66"/></g></g></g></svg>