<svg id="图层_1" data-name="图层 1" xmlns="http://www.w3.org/2000/svg" viewBox="0 0 550 307.12"><defs><style>.cls-1,.cls-2,.cls-3,.cls-4,.cls-5{isolation:isolate;}.cls-2{font-size:12px;fill:#2e2e2e;font-family:PingFangSC-Regular-GBpc-EUC-H, PingFang SC;}.cls-3,.cls-4,.cls-5{font-size:42px;}.cls-3,.cls-7{fill:#ffc710;}.cls-3,.cls-5{font-family:PingFangSC-Medium-GBpc-EUC-H, PingFang SC;}.cls-4,.cls-8{fill:#1557ef;}.cls-4{font-family:PingFangHK-Medium-B5pc-H, PingFang HK;}.cls-5,.cls-6{fill:#25ea3f;}.cls-6,.cls-7,.cls-8{stroke:#fff;stroke-width:6px;fill-rule:evenodd;}.cls-9{fill:#f8fcfd;}.cls-10{fill:none;stroke:#2e2e2e;}</style></defs><g id="页面-1"><g id="英文版"><g id="intro03_img_en" data-name="intro03 img en"><g id="DAO40_" data-name="DAO40%" class="cls-1"><text class="cls-2" transform="translate(431 238.12)">DAO</text><text class="cls-3" transform="translate(456.56 238.12)">40%</text></g><g id="Team-20_" data-name="Team-20%" class="cls-1"><text class="cls-2" transform="translate(422 36.12)">Team </text><text class="cls-4" transform="translate(457.05 36.12)">20%</text></g><g id="Mining-40_" data-name="Mining-40%" class="cls-1"><text class="cls-2" transform="translate(0 141.12)">Mining </text><text class="cls-5" transform="translate(41.23 141.12)">40%</text></g><g id="编组"><path id="Fill-5" class="cls-6" d="M268.64,179.88V45a135,135,0,0,0-135,134.88c0,44.69,19.46,82.85,55.66,109.12Z" transform="translate(0 -10.88)"/><path id="Fill-3" class="cls-7" d="M268.08,179.78,188.64,289.17a135.11,135.11,0,0,0,188.78-29.92c26.33-36.24,33-78.64,19.2-121.25Z" transform="translate(0 -10.88)"/><path id="Fill-1备份" class="cls-8" d="M268.64,180l128-41.72C378.27,81.56,328.11,45,268.64,45Z" transform="translate(0 -10.88)"/></g><circle id="椭圆形" class="cls-9" cx="268.64" cy="169.12" r="49"/><polyline id="路径-2" class="cls-10" points="308 228.12 391.95 283.59 550 283.59"/><polyline id="路径-2备份-2" class="cls-10" points="196 157.12 98 180.55 0 180.55"/><polyline id="路径-2备份" class="cls-10" points="311 102.08 393.91 83.12 550 83.12"/></g></g></g></svg>