<svg xmlns="http://www.w3.org/2000/svg" viewBox="0 0 54 56.37"><defs><style>.cls-1{fill:#1457ef;}.cls-2{fill:#24ea3f;}</style></defs><g id="图层_2" data-name="图层 2"><g id="图层_1-2" data-name="图层 1"><path class="cls-1" d="M37.31,0h-13A12.71,12.71,0,0,0,11.74,11H33.86a9.79,9.79,0,0,1,9.79,9.79V38.42A12.7,12.7,0,0,1,31,51.12h6.35A16.7,16.7,0,0,0,54,34.42V16.69A16.69,16.69,0,0,0,37.31,0Z"/><path class="cls-2" d="M20.14,40.08a9.79,9.79,0,0,1-9.79-9.8V12.7A12.69,12.69,0,0,1,23,0H16.69A16.69,16.69,0,0,0,0,16.69V55.84a.53.53,0,0,0,.88.4L2.3,55a15.41,15.41,0,0,1,10.2-3.86H29.67a12.71,12.71,0,0,0,12.59-11Z"/><circle class="cls-1" cx="31.59" cy="30.28" r="3.55"/><circle class="cls-2" cx="22.39" cy="20.81" r="3.55"/></g></g></svg>