<?xml version="1.0" encoding="UTF-8"?>
<svg width="172px" height="121px" viewBox="0 0 172 121" version="1.1" xmlns="http://www.w3.org/2000/svg" xmlns:xlink="http://www.w3.org/1999/xlink">
    <title>broker_img</title>
    <defs>
        <path d="M38,0 C58.9868205,-3.85521638e-15 76,17.0131795 76,38 L76,42 L76,42 L0,42 L0,38 C-2.57014425e-15,17.0131795 17.0131795,3.85521638e-15 38,0 Z" id="path-1"></path>
    </defs>
    <g id="页面-1" stroke="none" stroke-width="1" fill="none" fill-rule="evenodd">
        <g id="英文版" transform="translate(-468.000000, -4634.000000)">
            <g id="编组-38" transform="translate(458.000000, 4634.000000)">
                <g id="编组-18" transform="translate(10.000000, 0.000000)">
                    <g id="编组-33" transform="translate(35.000000, 35.000000)">
                        <g id="编组-32">
                            <g id="编组-8">
                                <g id="椭圆形" transform="translate(0.000000, 29.360730)">
                                    <mask id="mask-2" fill="white">
                                        <use xlink:href="#path-1"></use>
                                    </mask>
                                    <use id="蒙版" fill="#1557EF" xlink:href="#path-1"></use>
                                    <ellipse stroke="#2E2E2E" fill="#F8FCFD" mask="url(#mask-2)" cx="37.5" cy="0.5" rx="15" ry="15.5166667"></ellipse>
                                </g>
                                <g id="编组-7" transform="translate(21.784926, 0.000000)">
                                    <rect id="矩形" stroke="#2E2E2E" fill="#F8FCFD" x="3.37201552" y="3.30433915" width="24.5111111" height="35.556391" rx="12.2555556"></rect>
                                    <path d="M11.188804,8.98309253 C14.6296643,11.3257512 18.1497157,12.4970806 21.7489582,12.4970806 C25.3482006,12.4970806 27.5595901,15.3588986 28.3831266,21.0825346 C29.9400988,12.9233097 29.3212786,7.15465964 26.5266658,3.77658455 C22.3347466,-1.29052809 18.0927029,-0.437580022 9.58333967,1.59750137 C3.88430241,0 0.90858793,4.83733731 0.21507377,8.98309253 C-0.47844039,13.1288478 0.530920586,18.8976381 2.87201552,20.2998076 C8.65518335,18.2048181 11.4274462,14.4325797 11.188804,8.98309253 Z" id="路径-4" fill="#2E2E2E"></path>
                                </g>
                            </g>
                            <polyline id="路径-9" stroke="#2E2E2E" points="34.7381 45.3780784 33.5528266 47.6903768 34.7381 49.3780784 39.8503347 49.3780784 41.2679088 47.3780784 40.2587517 45.3780784"></polyline>
                            <polygon id="路径-10" stroke="#2E2E2E" points="34.7381 49.3780784 33.0160667 62.2863356 36.9772544 67.4955945 41.2679088 62.2863356 39.8503347 49.3780784"></polygon>
                        </g>
                        <g id="编组" transform="translate(85.278206, 40.978163) rotate(-10.000000) translate(-85.278206, -40.978163) translate(55.381743, 13.129107)">
                            <path d="M47.3789819,1 C48.2810678,1 49.0983685,1.35909979 49.6897185,1.94173219 C50.2756535,2.5190294 50.6393443,3.31621223 50.6393443,4.19755671 L50.6393443,4.19755671 L50.6393443,54.6981132 L12.502157,54.6981132 C11.5757531,54.6981132 10.7364059,54.3292531 10.1290843,53.7308846 C9.52717795,53.1378514 9.15358067,52.3189474 9.15358067,51.413643 L9.15358067,51.413643 L9.15358067,1 Z" id="Stroke-1" stroke="#000000" stroke-width="2" fill="#FFFFFF"></path>
                            <path d="M17.9305812,49.3 L17.9305812,49.9037736 C17.9305812,52.5714178 15.9869281,54.7339623 13.5893011,54.7339623 L22.0392927,54.7339623 L55.9943049,54.7339623 C58.0922285,54.7339623 59.7929249,52.8417358 59.7929249,50.5075472 L17.9305812,49.3 Z" id="Stroke-3" stroke="#000000" stroke-width="2" fill="#FFFFFF"></path>
                            <path d="M9.51251079,5.43396226 C9.51251079,2.43286253 7.3830673,0 4.75625539,0 C2.12944349,0 0,2.43286253 0,5.43396226 L9.51251079,5.43396226 Z" id="Fill-5" fill="#000000"></path>
                            <polygon id="矩形" fill="#000000" points="4.75625539 -1.11985892e-13 9.51251079 0 9.51251079 4.0754717 4.75625539 4.0754717"></polygon>
                            <line x1="14.5358929" y1="12.8095248" x2="44.1416509" y2="8.09001004" id="直线-2" stroke="#2E2E2E" stroke-width="2" stroke-linecap="round" transform="translate(29.338772, 10.449767) rotate(10.000000) translate(-29.338772, -10.449767) "></line>
                            <line x1="14.708447" y1="22.3493847" x2="44.314205" y2="17.6298699" id="直线-2备份" stroke="#2E2E2E" stroke-width="2" stroke-linecap="round" transform="translate(29.511326, 19.989627) rotate(10.000000) translate(-29.511326, -19.989627) "></line>
                            <line x1="14.8810011" y1="31.8892446" x2="44.4867591" y2="27.1697298" id="直线-2备份-2" stroke="#2E2E2E" stroke-width="2" stroke-linecap="round" transform="translate(29.683880, 29.529487) rotate(10.000000) translate(-29.683880, -29.529487) "></line>
                        </g>
                    </g>
                    <path d="M136,78 L141,85 L137.999,84.999 L138,91 L134,91 L133.999,84.999 L131,85 L136,78 Z" id="形状结合" fill="#EF1533" transform="translate(136.000000, 84.500000) rotate(-9.000000) translate(-136.000000, -84.500000) "></path>
                </g>
            </g>
        </g>
    </g>
</svg>