<?xml version="1.0" encoding="UTF-8"?>
<svg width="172px" height="121px" viewBox="0 0 172 121" version="1.1" xmlns="http://www.w3.org/2000/svg" xmlns:xlink="http://www.w3.org/1999/xlink">
    <title>developer_img</title>
    <defs>
        <path d="M38,0 C58.9868205,-3.85521638e-15 76,17.0131795 76,38 L76,42 L76,42 L0,42 L0,38 C-2.57014425e-15,17.0131795 17.0131795,3.85521638e-15 38,0 Z" id="path-1"></path>
    </defs>
    <g id="页面-1" stroke="none" stroke-width="1" fill="none" fill-rule="evenodd">
        <g id="英文版" transform="translate(-1124.000000, -4620.000000)">
            <g id="编组-40" transform="translate(1108.000000, 4620.000000)">
                <g id="编组-25" transform="translate(16.000000, 0.000000)">
                    <g id="编组-35" transform="translate(28.000000, 13.000000)">
                        <g id="编组-31">
                            <g id="编组-8" transform="translate(27.000000, 25.000000)">
                                <g id="椭圆形" transform="translate(0.000000, 34.000000)">
                                    <mask id="mask-2" fill="white">
                                        <use xlink:href="#path-1"></use>
                                    </mask>
                                    <use id="蒙版" fill="#25EA3F" xlink:href="#path-1"></use>
                                    <ellipse stroke="#2E2E2E" fill="#F8FCFD" mask="url(#mask-2)" cx="37.5" cy="0.5" rx="15" ry="15.5166667"></ellipse>
                                </g>
                                <g id="编组-7" transform="translate(18.000000, 0.000000)">
                                    <rect id="矩形" stroke="#2E2E2E" fill="#F8FCFD" x="7.15694175" y="7.94360902" width="24.5111111" height="35.556391" rx="12.2555556"></rect>
                                    <path d="M28.9411765,0 C31.6051382,0 33.7647059,2.16620123 33.7647059,4.83834586 C33.7647059,5.04987211 33.7511735,5.25822798 33.7249297,5.46258993 C35.1883299,6.29312971 36.1764706,7.86915994 36.1764706,9.67669173 C36.1764706,9.81401169 36.1707674,9.94999551 36.1595858,10.0844179 C38.9783207,11.0748667 41,13.7677191 41,16.9342105 C41,20.9424275 37.7606485,24.1917293 33.7647059,24.1917293 C29.7687633,24.1917293 26.5294118,20.9424275 26.5294118,16.9342105 C26.5294118,16.7093428 26.5396073,16.4868636 26.55956,16.2672128 C25.8437797,16.6917236 25.0089446,16.9342105 24.1176471,16.9342105 C22.6767266,16.9342105 21.3833747,16.3004534 20.4995181,15.2956703 C19.6166253,16.3004534 18.3232734,16.9342105 16.8823529,16.9342105 C16.8823529,19.6063552 14.7227853,21.7725564 12.0588235,21.7725564 C12.0179683,21.7725564 11.9772317,21.7720469 11.9366197,21.7710339 C12.0170734,22.1611357 12.0588235,22.5667487 12.0588235,22.9821429 C12.0588235,26.3223237 9.35936393,29.0300752 6.02941176,29.0300752 C2.6994596,29.0300752 0,26.3223237 0,22.9821429 C0,20.9458046 1.00331369,19.1445226 2.54113478,18.0485431 C2.45635796,17.6917277 2.41176471,17.3181928 2.41176471,16.9342105 C2.41176471,14.2620659 4.57133238,12.0958647 7.23529412,12.0958647 C7.4641604,12.0958647 7.68930381,12.1118531 7.90967479,12.1427772 C7.48097788,11.4217139 7.23529412,10.5779822 7.23529412,9.67669173 C7.23529412,7.00454709 9.3948618,4.83834586 12.0588235,4.83834586 C12.269653,4.83834586 12.4773233,4.85191355 12.681014,4.87822593 C13.5091721,3.41033647 15.0803677,2.41917293 16.8823529,2.41917293 C18.3232673,2.41917293 19.6166143,3.05292469 20.5004706,4.05770036 C21.3833857,3.05292469 22.6767327,2.41917293 24.1176471,2.41917293 C24.3285012,2.41917293 24.5361954,2.43274378 24.7399089,2.45906222 C25.5679759,0.991175964 27.1391799,0 28.9411765,0 Z" id="形状结合" fill="#2E2E2E"></path>
                                </g>
                            </g>
                            <g id="编组-29">
                                <path d="M16.0051885,46.9352146 C13.20022,45.9452674 10.5601244,44.4603144 8.25009719,42.3151602 C7.92002884,41.9850919 7.75509135,41.4901505 7.92002884,41.1602755 C8.74510302,38.6851175 8.41503468,36.0450219 7.09495467,33.90019 C5.77519694,31.5901628 3.79498025,30.1049519 1.32001555,29.6099461 C0.825074172,29.4450731 0.495005831,29.1150047 0.495005831,28.6199989 C0.16493749,27.1350459 0,25.4848975 0,23.9999445 C0,22.5149914 0.16493749,21.0300384 0.495005831,19.37989 C0.659878867,18.8849487 0.989947208,18.5548803 1.32001555,18.3899428 C3.79498025,17.7298062 5.94006997,16.2448531 7.09495467,14.0999568 C8.41503468,11.789994 8.58016553,9.31477148 7.92002884,6.83987123 C7.75509135,6.3448654 7.92002884,5.84985957 8.25009719,5.68472872 C10.5601244,3.70476985 13.20022,2.21981681 16.0051885,1.06467429 C16.5001944,0.899801257 16.8302627,1.06467429 17.1600732,1.39474263 C18.9750946,3.20982847 21.2851218,4.36471317 23.7603443,4.36471317 C26.2352446,4.36471317 28.7104027,3.3747015 30.3602932,1.39474263 C30.6903615,1.06467429 31.1853674,0.899801257 31.5154357,1.06467429 C34.3204043,2.05468595 36.9604998,3.53989681 39.2705271,5.68472872 C39.6003376,6.01479706 39.7655329,6.50980289 39.6003376,6.83987123 C38.7755857,9.31477148 39.1053318,11.954867 40.4254118,14.0999568 C41.7454273,16.409984 43.7253862,17.894937 46.2005442,18.3899428 C46.6955501,18.5548803 47.0256829,18.8849487 47.0256829,19.37989 C47.3554289,20.8649075 47.5206242,22.5149914 47.5206242,23.9999445 C47.5206242,25.4848975 47.3554289,26.9701084 47.0256829,28.6199989 C46.8604876,29.1150047 46.530677,29.4450731 46.2005442,29.6099461 C43.7253862,30.2700183 41.5805543,31.7549714 40.4254118,33.90019 C39.1053318,36.2102172 38.9404587,38.6851175 39.6003376,41.1602755 C39.7655329,41.6552814 39.6003376,42.1502872 39.2705271,42.3151602 C36.9604998,44.2951191 34.3204043,45.7803299 31.5154357,46.9352146 C31.0204299,47.1003455 30.6903615,46.9352146 30.3602932,46.6051463 C28.5452718,44.7903827 26.2352446,43.6352402 23.7603443,43.6352402 C21.2851218,43.6352402 18.8102216,44.6251874 17.1600732,46.6051463 C16.9952002,46.7702127 16.6651319,46.9352146 16.3352569,46.9352146 L16.0051885,46.9352146 Z" id="Fill-1" stroke="#7879E9" stroke-width="2"></path>
                                <path d="M17.0051885,45.9352146 C14.20022,44.9452674 11.5601244,43.4603144 9.25009719,41.3151602 C8.92002884,40.9850919 8.75509135,40.4901505 8.92002884,40.1602755 C9.74510302,37.6851175 9.41503468,35.0450219 8.09495467,32.90019 C6.77519694,30.5901628 4.79498025,29.1049519 2.32001555,28.6099461 C1.82507417,28.4450731 1.49500583,28.1150047 1.49500583,27.6199989 C1.16493749,26.1350459 1,24.4848975 1,22.9999445 C1,21.5149914 1.16493749,20.0300384 1.49500583,18.37989 C1.65987887,17.8849487 1.98994721,17.5548803 2.32001555,17.3899428 C4.79498025,16.7298062 6.94006997,15.2448531 8.09495467,13.0999568 C9.41503468,10.789994 9.58016553,8.31477148 8.92002884,5.83987123 C8.75509135,5.3448654 8.92002884,4.84985957 9.25009719,4.68472872 C11.5601244,2.70476985 14.20022,1.21981681 17.0051885,0.0646742925 C17.5001944,-0.100198743 17.8302627,0.0646742925 18.1600732,0.394742634 C19.9750946,2.20982847 22.2851218,3.36471317 24.7603443,3.36471317 C27.2352446,3.36471317 29.7104027,2.3747015 31.3602932,0.394742634 C31.6903615,0.0646742925 32.1853674,-0.100198743 32.5154357,0.0646742925 C35.3204043,1.05468595 37.9604998,2.53989681 40.2705271,4.68472872 C40.6003376,5.01479706 40.7655329,5.50980289 40.6003376,5.83987123 C39.7755857,8.31477148 40.1053318,10.954867 41.4254118,13.0999568 C42.7454273,15.409984 44.7253862,16.894937 47.2005442,17.3899428 C47.6955501,17.5548803 48.0256829,17.8849487 48.0256829,18.37989 C48.3554289,19.8649075 48.5206242,21.5149914 48.5206242,22.9999445 C48.5206242,24.4848975 48.3554289,25.9701084 48.0256829,27.6199989 C47.8604876,28.1150047 47.530677,28.4450731 47.2005442,28.6099461 C44.7253862,29.2700183 42.5805543,30.7549714 41.4254118,32.90019 C40.1053318,35.2102172 39.9404587,37.6851175 40.6003376,40.1602755 C40.7655329,40.6552814 40.6003376,41.1502872 40.2705271,41.3151602 C37.9604998,43.2951191 35.3204043,44.7803299 32.5154357,45.9352146 C32.0204299,46.1003455 31.6903615,45.9352146 31.3602932,45.6051463 C29.5452718,43.7903827 27.2352446,42.6352402 24.7603443,42.6352402 C22.2851218,42.6352402 19.8102216,43.6251874 18.1600732,45.6051463 C17.9952002,45.7702127 17.6651319,45.9352146 17.3352569,45.9352146 L17.0051885,45.9352146 Z" id="Fill-1备份-4" stroke="#2E2E2E" stroke-width="2" fill="#FFFFFF"></path>
                                <text id="&lt;-/-&gt;" font-family="Helvetica-Bold, Helvetica" font-size="12" font-weight="bold" fill="#2E2E2E">
                                    <tspan x="13" y="27">&lt; / &gt;</tspan>
                                </text>
                                <circle id="椭圆形" stroke="#2E2E2E" stroke-width="2" cx="25" cy="23" r="15"></circle>
                            </g>
                        </g>
                        <g id="编组-30" transform="translate(19.000000, 3.000000)" stroke="#2E2E2E">
                            <circle id="椭圆形备份-54" cx="8.34782609" cy="56" r="3.5"></circle>
                            <circle id="椭圆形备份-55" cx="38.3478261" cy="8" r="3.5"></circle>
                            <path d="M5.5670221,63.977466 C4.59138085,63.6331365 3.67308675,63.1166311 2.86959902,62.3704905 C2.75479264,62.2556841 2.69742308,62.0835306 2.75479264,61.9687915 C3.04177496,61.1078669 2.92696858,60.1895728 2.46781032,59.4435443 C2.00876415,58.6400566 1.31999313,58.1234615 0.459135843,57.9512856 C0.286982321,57.8939385 0.172175941,57.7791321 0.172175941,57.6069561 C0.0573695617,57.0904507 0,56.5164861 0,55.9999807 C0,55.4834753 0.0573695617,54.9669699 0.172175941,54.3930052 C0.229523084,54.2208517 0.344329464,54.1060453 0.459135843,54.0486758 C1.31999313,53.819063 2.0661113,53.3025576 2.46781032,52.5565067 C2.92696858,51.7530414 2.9844054,50.8920944 2.75479264,50.0312596 C2.69742308,49.8590836 2.75479264,49.6869077 2.86959902,49.6294709 C3.67308675,48.9407895 4.59138085,48.4242841 5.5670221,48.0224954 C5.73919804,47.9651483 5.85400442,48.0224954 5.96872113,48.1373018 C6.60003291,48.768636 7.40352064,49.170335 8.2644676,49.170335 C9.12530247,49.170335 9.98622701,48.8259831 10.560102,48.1373018 C10.6749084,48.0224954 10.8470843,47.9651483 10.9618907,48.0224954 C11.9375319,48.3668473 12.855826,48.8834424 13.6593138,49.6294709 C13.7740305,49.7442772 13.8314897,49.9164532 13.7740305,50.0312596 C13.4871602,50.8920944 13.6018545,51.8103885 14.0610128,52.5565067 C14.5201486,53.3599944 15.20883,53.8764998 16.0697545,54.0486758 C16.2419305,54.1060453 16.3567593,54.2208517 16.3567593,54.3930052 C16.4714535,54.9095331 16.5289128,55.4834753 16.5289128,55.9999807 C16.5289128,56.5164861 16.4714535,57.0330812 16.3567593,57.6069561 C16.2993,57.7791321 16.1845833,57.8939385 16.0697545,57.9512856 C15.20883,58.1808759 14.4628015,58.6973813 14.0610128,59.4435443 C13.6018545,60.2470321 13.5445074,61.1078669 13.7740305,61.9687915 C13.8314897,62.1409674 13.7740305,62.3131434 13.6593138,62.3704905 C12.855826,63.0591719 11.9375319,63.5757669 10.9618907,63.977466 C10.7897147,64.0349028 10.6749084,63.977466 10.560102,63.8626596 C9.92879019,63.2314375 9.12530247,62.8296488 8.2644676,62.8296488 C7.40352064,62.8296488 6.54268577,63.1739782 5.96872113,63.8626596 C5.91137398,63.920074 5.7965676,63.977466 5.68182848,63.977466 L5.5670221,63.977466 Z" id="Fill-1备份-2"></path>
                            <path d="M35.5670221,15.977466 C34.5913809,15.6331365 33.6730867,15.1166311 32.869599,14.3704905 C32.7547926,14.2556841 32.6974231,14.0835306 32.7547926,13.9687915 C33.041775,13.1078669 32.9269686,12.1895728 32.4678103,11.4435443 C32.0087642,10.6400566 31.3199931,10.1234615 30.4591358,9.9512856 C30.2869823,9.89393846 30.1721759,9.77913208 30.1721759,9.60695614 C30.0573696,9.09045073 30,8.51648609 30,7.99998069 C30,7.48347528 30.0573696,6.96696987 30.1721759,6.39300523 C30.2295231,6.22085171 30.3443295,6.10604533 30.4591358,6.04867577 C31.3199931,5.81906301 32.0661113,5.30255761 32.4678103,4.5565067 C32.9269686,3.75304139 32.9844054,2.89209443 32.7547926,2.03125956 C32.6974231,1.85908362 32.7547926,1.68690768 32.869599,1.62947086 C33.6730867,0.940789512 34.5913809,0.424284107 35.5670221,0.0224954061 C35.739198,-0.0348517369 35.8540044,0.0224954061 35.9687211,0.137301786 C36.6000329,0.768635989 37.4035206,1.17033501 38.2644676,1.17033501 C39.1253025,1.17033501 39.986227,0.825983132 40.560102,0.137301786 C40.6749084,0.0224954061 40.8470843,-0.0348517369 40.9618907,0.0224954061 C41.9375319,0.366847289 42.855826,0.883442369 43.6593138,1.62947086 C43.7740305,1.74427724 43.8314897,1.91645318 43.7740305,2.03125956 C43.4871602,2.89209443 43.6018545,3.81038853 44.0610128,4.5565067 C44.5201486,5.35999442 45.20883,5.87649983 46.0697545,6.04867577 C46.2419305,6.10604533 46.3567593,6.22085171 46.3567593,6.39300523 C46.4714535,6.90953306 46.5289128,7.48347528 46.5289128,7.99998069 C46.5289128,8.51648609 46.4714535,9.03308117 46.3567593,9.60695614 C46.2993,9.77913208 46.1845833,9.89393846 46.0697545,9.9512856 C45.20883,10.1808759 44.4628015,10.6973813 44.0610128,11.4435443 C43.6018545,12.2470321 43.5445074,13.1078669 43.7740305,13.9687915 C43.8314897,14.1409674 43.7740305,14.3131434 43.6593138,14.3704905 C42.855826,15.0591719 41.9375319,15.5757669 40.9618907,15.977466 C40.7897147,16.0349028 40.6749084,15.977466 40.560102,15.8626596 C39.9287902,15.2314375 39.1253025,14.8296488 38.2644676,14.8296488 C37.4035206,14.8296488 36.5426858,15.1739782 35.9687211,15.8626596 C35.911374,15.920074 35.7965676,15.977466 35.6818285,15.977466 L35.5670221,15.977466 Z" id="Fill-1备份-3"></path>
                        </g>
                    </g>
                </g>
            </g>
        </g>
    </g>
</svg>