<?xml version="1.0" encoding="UTF-8"?>
<svg width="507px" height="501px" viewBox="0 0 507 501" version="1.1" xmlns="http://www.w3.org/2000/svg" xmlns:xlink="http://www.w3.org/1999/xlink">
    <title>economic M03_img_en</title>
    <defs>
        <path d="M20.5,0 C31.8218374,-2.07978778e-15 41,9.17816263 41,20.5 L41,22.10185 L41,22.10185 L0,22.10185 L0,20.5 C-1.38652519e-15,9.17816263 9.17816263,2.07978778e-15 20.5,0 Z" id="path-1"></path>
        <path d="M20.5,0 C31.8218374,-2.07978778e-15 41,9.17816263 41,20.5 L41,21.9550743 L41,21.9550743 L0,21.9550743 L0,20.5 C-1.38652519e-15,9.17816263 9.17816263,2.07978778e-15 20.5,0 Z" id="path-3"></path>
        <path d="M23.5,0 C36.4786916,-2.38414697e-15 47,10.5213084 47,23.5 L47,25.735745 L47,25.735745 L0,25.735745 L0,23.5 C-5.14214499e-15,10.5213084 10.5213084,2.38414697e-15 23.5,0 Z" id="path-5"></path>
        <path d="M24,0 C37.254834,-2.4348735e-15 48,10.745166 48,24 L48,26 L48,26 L0,26 L0,24 C-1.623249e-15,10.745166 10.745166,2.4348735e-15 24,0 Z" id="path-7"></path>
        <path d="M24,0 C37.254834,-2.4348735e-15 48,10.745166 48,24 L48,26 L48,26 L0,26 L0,24 C-1.623249e-15,10.745166 10.745166,2.4348735e-15 24,0 Z" id="path-9"></path>
    </defs>
    <g id="页面-1" stroke="none" stroke-width="1" fill="none" fill-rule="evenodd">
        <g id="英文版" transform="translate(-753.000000, -3914.000000)">
            <g id="economic-M03_img_en" transform="translate(753.338328, 3914.000000)">
                <path d="M388.050756,282 C394.376722,285.442364 398.294118,290.213898 398.294118,295.487183 C398.294118,305.980593 382.782101,314.487183 363.647059,314.487183 C344.512017,314.487183 329,305.980593 329,295.487183 C329,291.554435 331.178849,287.90076 334.910678,284.869377 C333.97613,286.637238 333.470588,288.525566 333.470588,290.487183 C333.470588,300.428309 346.45433,308.487183 362.470588,308.487183 C378.486846,308.487183 391.470588,300.428309 391.470588,290.487183 C391.470588,287.504845 390.302051,284.69191 388.233661,282.215147 Z" id="形状结合" fill="#2E2E2E"></path>
                <polygon id="三角形" fill="#2E2E2E" transform="translate(352.284586, 310.475532) rotate(-71.000000) translate(-352.284586, -310.475532) " points="352.284586 304.475532 362.284586 316.475532 342.284586 316.475532"></polygon>
                <polyline id="路径" stroke="#F8FCFD" stroke-width="2" transform="translate(352.284586, 310.475532) rotate(-71.000000) translate(-352.284586, -310.475532) " points="342.284586 316.475532 352.284586 304.475532 362.284586 316.475532"></polyline>
                <text id="transform-USDT" font-family="PingFangSC-Semibold, PingFang SC" font-size="16" font-weight="500" fill="#2E2E2E">
                    <tspan x="327.3" y="272">transform</tspan>
                    <tspan x="342.74" y="294">USDT</tspan>
                </text>
                <text id="Defi-contract" font-family="PingFangSC-Regular, PingFang SC" font-size="12" font-weight="normal" fill="#2E2E2E">
                    <tspan x="342" y="82">Defi contract</tspan>
                </text>
                <text id="license-ecosystem" font-family="PingFangSC-Regular, PingFang SC" font-size="12" font-weight="normal" fill="#2E2E2E">
                    <tspan x="64" y="71">license ecosystem</tspan>
                </text>
                <g id="编组-20" transform="translate(71.000000, 0.000000)">
                    <g id="编组-12备份-5" transform="translate(37.000000, 19.000000)">
                        <rect id="矩形" stroke="#2E2E2E" stroke-width="2" x="1" y="1" width="46" height="34"></rect>
                        <rect id="矩形" fill="#BA8CFC" x="29" y="6" width="14" height="19"></rect>
                        <g id="编组-10" transform="translate(8.000000, 9.000000)" stroke="#2E2E2E" stroke-linecap="round" stroke-width="2">
                            <line x1="0.5" y1="0.5" x2="16.5" y2="0.5" id="直线-5"></line>
                            <line x1="0.5" y1="6.5" x2="16.5" y2="6.5" id="直线-5备份"></line>
                            <line x1="0.5" y1="13.5" x2="16.5" y2="13.5" id="直线-5备份-2"></line>
                        </g>
                    </g>
                    <g id="编组-12备份-4" transform="translate(18.000000, 8.000000)">
                        <rect id="矩形" stroke="#2E2E2E" stroke-width="2" fill="#F8FCFD" x="1" y="1" width="46" height="34"></rect>
                        <rect id="矩形" fill="#C8F252" x="29" y="6" width="14" height="19"></rect>
                        <g id="编组-10" transform="translate(8.000000, 9.000000)" stroke="#2E2E2E" stroke-linecap="round" stroke-width="2">
                            <line x1="0.5" y1="0.5" x2="16.5" y2="0.5" id="直线-5"></line>
                            <line x1="0.5" y1="6.5" x2="16.5" y2="6.5" id="直线-5备份"></line>
                            <line x1="0.5" y1="13.5" x2="16.5" y2="13.5" id="直线-5备份-2"></line>
                        </g>
                    </g>
                    <g id="编组-12备份-3">
                        <rect id="矩形" stroke="#2E2E2E" stroke-width="2" fill="#F8FCFD" x="1" y="1" width="46.921484" height="34.6792453"></rect>
                        <rect id="矩形" fill="#F2BE52" x="30" y="7" width="14" height="19"></rect>
                        <g id="编组-10" transform="translate(7.000000, 10.000000)" stroke="#2E2E2E" stroke-linecap="round" stroke-width="2">
                            <line x1="0.5" y1="0.5" x2="16.5" y2="0.5" id="直线-5"></line>
                            <line x1="0.5" y1="6.5" x2="16.5" y2="6.5" id="直线-5备份"></line>
                            <line x1="0.5" y1="13.5" x2="16.5" y2="13.5" id="直线-5备份-2"></line>
                        </g>
                    </g>
                </g>
                <g id="编组-11" transform="translate(347.000000, 4.000000)" stroke="#2E2E2E" stroke-width="2">
                    <rect id="矩形" x="1" y="1" width="57.4531924" height="45.5471698"></rect>
                    <line x1="6.19197584" y1="29.785967" x2="6.19197584" y2="40.4721083" id="直线-3" stroke-linecap="round"></line>
                    <line x1="14.1919758" y1="31.410967" x2="14.1919758" y2="40.4721083" id="直线-3备份" stroke-linecap="round"></line>
                    <line x1="22.1919758" y1="28.0373257" x2="22.1919758" y2="40.4721083" id="直线-3备份-2" stroke-linecap="round"></line>
                    <line x1="30.1919758" y1="30.598467" x2="30.1919758" y2="40.4721083" id="直线-3备份-3" stroke-linecap="round"></line>
                    <line x1="46.1919758" y1="30.598467" x2="46.1919758" y2="40.4721083" id="直线-3备份-5" stroke-linecap="round"></line>
                    <line x1="38.1919758" y1="28.0373257" x2="38.1919758" y2="40.4721083" id="直线-3备份-4" stroke-linecap="round"></line>
                    <line x1="54.1919758" y1="28.0373257" x2="54.1919758" y2="40.4721083" id="直线-3备份-6" stroke-linecap="round"></line>
                    <polyline id="路径" stroke-linecap="round" points="6.19197584 15.9810112 24.9567717 21.6796515 32.2250113 12.5682701 40.1626317 17.0429617 51.5177214 11.4012678"></polyline>
                    <polyline id="路径" stroke-linecap="round" transform="translate(49.804429, 12.222115) rotate(2.000000) translate(-49.804429, -12.222115) " points="47.8783286 9.81785609 51.7305288 10.6263734 51.7301991 14.6263734"></polyline>
                </g>
                <text id="Token/USDT" font-family="PingFangSC-Regular, PingFang SC" font-size="12" font-weight="normal" fill="#2E2E2E">
                    <tspan x="340" y="68">Token/USDT</tspan>
                </text>
                <text id="DAO" font-family="PingFangSC-Light, PingFang SC" font-size="12" font-weight="300" fill="#2E2E2E">
                    <tspan x="219" y="201">DAO</tspan>
                </text>
                <g id="编组-9" transform="translate(192.000000, 133.000000)">
                    <g id="编组-8备份-2" transform="translate(0.000000, 10.000000)">
                        <g id="椭圆形" transform="translate(0.000000, 18.898150)">
                            <mask id="mask-2" fill="white">
                                <use xlink:href="#path-1"></use>
                            </mask>
                            <use id="蒙版" fill="#25A0EA" xlink:href="#path-1"></use>
                            <ellipse stroke="#2E2E2E" fill="#F8FCFD" mask="url(#mask-2)" cx="20.2813973" cy="0.396187008" rx="7.6966269" ry="7.60067805"></ellipse>
                        </g>
                        <g id="编组-7" transform="translate(11.038462, 0.000000)">
                            <rect id="矩形" stroke="#2E2E2E" fill="#F8FCFD" x="4.34054332" y="3.14818621" width="13.7179487" height="19.9860745" rx="6.85897436"></rect>
                            <path d="M9.69343891,0 C11.663056,0 13.3917026,1.02977611 14.3684293,2.57934057 C15.68927,2.79481262 16.6968326,3.93942598 16.6968326,5.31892534 C16.6968326,6.61192216 15.8116682,7.69856682 14.6131738,8.00810101 C13.7007683,9.7943034 11.8402415,11.0176891 9.69343891,11.0176891 C9.06035392,11.0176891 8.45216464,10.9112985 7.88583858,10.7154529 C7.59593867,10.8181082 7.28302288,10.8740627 6.95701357,10.8740627 C6.93290532,10.8740627 6.90886868,10.8737567 6.88490731,10.8731484 C6.93285745,11.0964644 6.95701357,11.329644 6.95701357,11.5684549 C6.95701357,13.4859659 5.39963304,15.0404157 3.47850679,15.0404157 C1.55738054,15.0404157 0,13.4859659 0,11.5684549 C0,10.3995612 0.578720737,9.36558056 1.465777,8.73638946 C1.41715795,8.53160123 1.39140271,8.3170497 1.39140271,8.09649402 C1.39140271,6.56248519 2.63730714,5.31892534 4.17420814,5.31892534 C4.17555542,5.31892534 4.17690247,5.31892629 4.17824929,5.3189282 C4.27796622,2.36416542 6.70909182,0 9.69343891,0 Z" id="形状结合" fill="#2E2E2E"></path>
                        </g>
                    </g>
                    <g id="编组-8备份-3" transform="translate(41.000000, 11.000000)">
                        <g id="椭圆形" transform="translate(0.000000, 18.044926)">
                            <mask id="mask-4" fill="white">
                                <use xlink:href="#path-3"></use>
                            </mask>
                            <use id="蒙版" fill="#6B25EA" xlink:href="#path-3"></use>
                            <ellipse stroke="#2E2E2E" fill="#F8FCFD" mask="url(#mask-4)" cx="20.2813973" cy="0.393555979" rx="7.6966269" ry="7.54688245"></ellipse>
                        </g>
                        <g id="编组-7" transform="translate(10.656093, 0.000000)">
                            <rect id="矩形" stroke="#2E2E2E" fill="#F8FCFD" x="1.56906528" y="2.40287584" width="13.7179487" height="19.8467086" rx="6.85897436"></rect>
                            <path d="M4.82855486,1.33272559 C4.82855486,-0.953006907 14.2435867,0.216451748 15.9979129,1.05966379 C17.752239,1.90287584 19.3280156,5.12165871 19.3280156,7.40739121 C19.3280156,9.69312371 17.5246523,10.5774173 15.2193008,10.5774173 C14.8197716,10.5774173 14.2466409,10.3684074 13.5720804,10.0109349 C13.2049757,10.0525816 12.8271314,10.0741253 12.4411916,10.0741253 C8.95754937,10.0741253 6.13349933,8.31883574 6.13349933,6.15357632 L6.13585153,6.20967428 C4.70098067,8.03440237 2.41736168,10.0741253 1.4027301,10.0741253 C-0.134170898,10.0741253 -0.373283402,9.63303222 0.51472335,8.05925388 C1.4027301,6.48547554 1.61822713,2.3627297 3.32580089,2.15589621 C3.87172135,2.08977044 4.48379185,2.08540585 5.06391601,2.15986528 C4.91181358,1.84474275 4.82855486,1.56467308 4.82855486,1.33272559 Z" id="形状结合" fill="#2E2E2E"></path>
                        </g>
                    </g>
                    <g id="编组-8" transform="translate(18.000000, 0.000000)">
                        <g id="椭圆形" transform="translate(0.000000, 26.264255)">
                            <mask id="mask-6" fill="white">
                                <use xlink:href="#path-5"></use>
                            </mask>
                            <use id="蒙版" fill="#EA6825" xlink:href="#path-5"></use>
                            <ellipse stroke="#2E2E2E" fill="#F8FCFD" mask="url(#mask-6)" cx="23.2494067" cy="0.461326443" rx="8.89613328" ry="8.93255814"></ellipse>
                        </g>
                        <g id="编组-7" transform="translate(10.721229, 0.000000)">
                            <rect id="矩形" stroke="#2E2E2E" fill="#F8FCFD" x="4.82252725" y="5.3372093" width="15.565035" height="22.7560724" rx="7"></rect>
                            <path d="M18.7922666,0 C20.5220469,0 21.924311,1.40770004 21.924311,3.14418605 C21.924311,3.28194196 21.9154861,3.41762873 21.898373,3.55070771 C22.848613,4.08942257 23.4903332,5.11366592 23.4903332,6.28837209 C23.4903332,6.37785011 23.48661,6.46645516 23.4793105,6.55403961 C25.3096099,7.1969213 26.6223776,8.94688526 26.6223776,11.0046512 C26.6223776,13.6093802 24.5189815,15.7209302 21.924311,15.7209302 C19.3296404,15.7209302 17.2262443,13.6093802 17.2262443,11.0046512 C17.2262443,10.8585724 17.23286,10.7140447 17.2458068,10.5713537 C16.7811288,10.8470475 16.2390095,11.0046512 15.6602221,11.0046512 C14.7246207,11.0046512 13.8848341,10.5928288 13.3109239,9.93990483 C12.7375436,10.5928288 11.8977569,11.0046512 10.9621555,11.0046512 C10.9621555,12.7411372 9.55989144,14.1488372 7.83011107,14.1488372 C7.80363825,14.1488372 7.77724215,14.1485075 7.75092661,14.147852 C7.80300472,14.4013846 7.83011107,14.6649564 7.83011107,14.9348837 C7.83011107,17.1054912 6.077281,18.8651163 3.91505553,18.8651163 C1.75283007,18.8651163 0,17.1054912 0,14.9348837 C0,13.6117293 0.651325787,12.4412899 1.64967576,11.7290468 C1.59499764,11.4970881 1.56602221,11.2542665 1.56602221,11.0046512 C1.56602221,9.26816516 2.96828627,7.86046512 4.69806664,7.86046512 C4.84701324,7.86046512 4.9935315,7.87090245 5.13693523,7.89108829 C4.85779887,7.42306857 4.69806664,6.87444637 4.69806664,6.28837209 C4.69806664,4.55188609 6.10033069,3.14418605 7.83011107,3.14418605 C7.96767981,3.14418605 8.10317702,3.15308969 8.23606208,3.17035426 C8.77142347,2.21647393 9.79182846,1.57209302 10.9621555,1.57209302 C11.8977569,1.57209302 12.7375436,1.98391543 13.3114537,2.63683936 C13.8848341,1.98391543 14.7246207,1.57209302 15.6602221,1.57209302 C15.7975503,1.57209302 15.9328142,1.58096556 16.0654761,1.59817075 C16.6015345,0.644380909 17.6219395,0 18.7922666,0 Z" id="形状结合" fill="#2E2E2E"></path>
                        </g>
                    </g>
                </g>
                <g id="编组-8备份-2" transform="translate(39.000000, 270.000000)">
                    <g id="椭圆形" transform="translate(0.000000, 19.989202)">
                        <mask id="mask-8" fill="white">
                            <use xlink:href="#path-7"></use>
                        </mask>
                        <use id="蒙版" fill="#25A0EA" xlink:href="#path-7"></use>
                        <ellipse stroke="#2E2E2E" fill="#F8FCFD" mask="url(#mask-8)" cx="23.7440749" cy="0.466063348" rx="9.09605101" ry="9.02941176"></ellipse>
                    </g>
                    <g id="编组-7" transform="translate(11.000000, 0.000000)">
                        <rect id="矩形" stroke="#2E2E2E" fill="#F8FCFD" x="5.05273806" y="0.626563206" width="15.8419085" height="23" rx="7.92095425"></rect>
                        <path d="M20.3401259,-9.21785705e-14 C23.0502106,-9.21785705e-14 23.1873077,3.17419624 23.0864759,6.28192371 L23.070705,6.72508268 C23.0369345,7.60909658 22.9928182,8.47508713 22.9928182,9.24747029 C22.9928182,12.2637043 19.1869392,7.98819996 15.8273798,6.51240967 C15.5088868,6.44872046 15.2077687,6.33798012 14.9304988,6.18880375 C14.5910226,6.09546967 14.2606869,6.04327657 13.9443152,6.04327657 C13.7478591,6.04327657 13.5461736,6.04645954 13.340408,6.05190011 C12.8244494,6.38677093 12.2079882,6.58128673 11.5459822,6.58128673 C11.5459822,8.39865887 10.0690358,9.87193009 8.24713012,9.87193009 C8.21905967,9.87193009 8.19107111,9.87158036 8.16316858,9.87088504 C8.21858166,10.136256 8.24713012,10.4120978 8.24713012,10.6945909 C8.24713012,12.9663061 6.40094716,14.8078951 4.12356506,14.8078951 C1.84618296,14.8078951 0,12.9663061 0,10.6945909 C0,9.3095677 0.686247998,8.08442745 1.73807202,7.33904419 C1.67991524,7.09641668 1.64942602,6.84240341 1.64942602,6.58128673 C1.64942602,4.76391458 3.12637239,3.29064336 4.94827807,3.29064336 C4.95432533,3.29064336 4.9603688,3.29065959 4.96640842,3.29069202 C5.15690925,1.9451935 7.07515577,1.14987117 9.53709227,0.679514984 C10.0938581,0.253498556 10.7902424,0 11.5459822,0 C11.9896305,0 12.4128242,0.0873592161 12.7992183,0.245773486 C13.837842,0.154069471 14.8841168,0.0964649713 15.8716638,0.0603100004 C16.0726247,0.0201706819 16.281081,0 16.4942602,0 C16.6399298,0 16.7833942,0.00941822007 16.9240748,0.0276775103 C17.7519909,0.00909022519 18.5150845,0.00263691596 19.1671874,0.000639624692 Z" id="形状结合" fill="#2E2E2E"></path>
                    </g>
                </g>
                <g id="编组-8备份-4" transform="translate(209.000000, 413.000000)">
                    <g id="椭圆形" transform="translate(0.000000, 19.989202)">
                        <mask id="mask-10" fill="white">
                            <use xlink:href="#path-9"></use>
                        </mask>
                        <use id="蒙版" fill="#6925EA" xlink:href="#path-9"></use>
                        <ellipse stroke="#2E2E2E" fill="#F8FCFD" mask="url(#mask-10)" cx="23.7440749" cy="0.466063348" rx="9.09605101" ry="9.02941176"></ellipse>
                    </g>
                    <g id="编组-7" transform="translate(11.000000, 0.000000)">
                        <rect id="矩形" stroke="#2E2E2E" fill="#F8FCFD" x="5.05273806" y="0.626563206" width="15.8419085" height="23" rx="7.92095425"></rect>
                        <path d="M20.3401259,-9.21785705e-14 C23.0502106,-9.21785705e-14 23.1873077,3.17419624 23.0864759,6.28192371 L23.070705,6.72508268 C23.0369345,7.60909658 22.9928182,8.47508713 22.9928182,9.24747029 C22.9928182,12.2637043 19.1869392,7.98819996 15.8273798,6.51240967 C15.5088868,6.44872046 15.2077687,6.33798012 14.9304988,6.18880375 C14.5910226,6.09546967 14.2606869,6.04327657 13.9443152,6.04327657 C13.7478591,6.04327657 13.5461736,6.04645954 13.340408,6.05190011 C12.8244494,6.38677093 12.2079882,6.58128673 11.5459822,6.58128673 C11.5459822,8.39865887 10.0690358,9.87193009 8.24713012,9.87193009 C8.21905967,9.87193009 8.19107111,9.87158036 8.16316858,9.87088504 C8.21858166,10.136256 8.24713012,10.4120978 8.24713012,10.6945909 C8.24713012,12.9663061 6.40094716,14.8078951 4.12356506,14.8078951 C1.84618296,14.8078951 0,12.9663061 0,10.6945909 C0,9.3095677 0.686247998,8.08442745 1.73807202,7.33904419 C1.67991524,7.09641668 1.64942602,6.84240341 1.64942602,6.58128673 C1.64942602,4.76391458 3.12637239,3.29064336 4.94827807,3.29064336 C4.95432533,3.29064336 4.9603688,3.29065959 4.96640842,3.29069202 C5.15690925,1.9451935 7.07515577,1.14987117 9.53709227,0.679514984 C10.0938581,0.253498556 10.7902424,0 11.5459822,0 C11.9896305,0 12.4128242,0.0873592161 12.7992183,0.245773486 C13.837842,0.154069471 14.8841168,0.0964649713 15.8716638,0.0603100004 C16.0726247,0.0201706819 16.281081,0 16.4942602,0 C16.6399298,0 16.7833942,0.00941822007 16.9240748,0.0276775103 C17.7519909,0.00909022519 18.5150845,0.00263691596 19.1671874,0.000639624692 Z" id="形状结合" fill="#2E2E2E"></path>
                    </g>
                </g>
                <text id="Smart-contract" font-family="PingFangSC-Regular, PingFang SC" font-size="12" font-weight="normal" fill="#2E2E2E">
                    <tspan x="191.168" y="335">Smart contract</tspan>
                </text>
                <text id="Auction-smart-contra" font-family="PingFangSC-Regular, PingFang SC" font-size="12" font-weight="normal" fill="#2E2E2E">
                    <tspan x="0" y="488">Auction smart contract</tspan>
                </text>
                <path id="直线-4备份-12" d="M62.6794651,365.679245 L69.5706564,379.733123 L63.57,379.686 L63.467,393.008 L69.4673176,393.05472 L62.3589301,407 L55.4677388,392.946122 L61.467,392.992 L61.57,379.671 L55.5710776,379.624525 L62.6794651,365.679245 Z" transform="translate(63.000000, 386.000000) scale(-1, 1) translate(-63.000000, -386.000000) " fill="#2E2E2E" fill-rule="nonzero"></path>
                <text id="Nick-name" font-family="PingFangSC-Regular, PingFang SC" font-size="12" font-weight="normal" fill="#2E2E2E">
                    <tspan x="34" y="335">Nick name</tspan>
                </text>
                <text id="Nick-name" font-family="PingFangSC-Regular, PingFang SC" font-size="12" font-weight="normal" fill="#2E2E2E">
                    <tspan x="203" y="478">Nick name  </tspan>
                </text>
                <text id="address-A" font-family="PingFangSC-Light, PingFang SC" font-size="12" font-weight="300" fill="#858585">
                    <tspan x="34" y="354">address A</tspan>
                </text>
                <text id="address-B" font-family="PingFangSC-Light, PingFang SC" font-size="12" font-weight="300" fill="#858585">
                    <tspan x="205.894" y="497">address B</tspan>
                </text>
                <text id="legal-tender" font-family="PingFangSC-Regular, PingFang SC" font-size="12" font-weight="normal" fill="#2E2E2E">
                    <tspan x="440" y="325">legal tender</tspan>
                </text>
                <g id="编组-6" transform="translate(349.485764, 361.000000)">
                    <ellipse id="椭圆形备份-5" fill="#25EA3F" cx="21.0634167" cy="21.0566038" rx="21.0634167" ry="21.0566038"></ellipse>
                    <ellipse id="椭圆形" stroke="#2E2E2E" fill="#F8FCFD" cx="22.4223469" cy="20.3773585" rx="19.8839517" ry="19.8773585"></ellipse>
                    <ellipse id="椭圆形备份-2" stroke="#2E2E2E" cx="22.4223469" cy="20.3773585" rx="15.8071613" ry="15.8018868"></ellipse>
                    <path d="M29.6778807,12.2264151 L29.6778807,16.0885309 L24.3338282,16.0885309 L24.3338282,18.6088936 C28.6713245,18.8223011 31.9348576,19.7475947 31.9348576,20.8567428 C31.9348576,21.9658909 28.6713245,22.8912189 24.3338282,23.104592 L24.3338282,23.104592 L24.3338282,31.245283 L20.5108655,31.245283 L20.5108655,23.104592 C16.1733692,22.8912189 12.9098361,21.9658909 12.9098361,20.8567428 C12.9098361,19.7475947 16.1733692,18.8223011 20.5108655,18.6088936 L20.5108655,18.6088936 L20.5108655,16.0885309 L15.166813,16.0885309 L15.166813,12.2264151 L29.6778807,12.2264151 Z M24.3338282,19.1637256 L24.3338282,21.4241323 C23.7582653,21.4806579 23.1092652,21.512516 22.4223469,21.512516 C21.7354285,21.512516 21.0864284,21.4806579 20.5108655,21.4241323 L20.5108655,21.4241323 L20.5108655,19.1637256 C17.0849245,19.331892 14.5464806,19.9416672 14.5464806,20.6682437 C14.5464806,21.5246262 18.0726321,22.218863 22.4223469,22.218863 C26.7720616,22.218863 30.2982131,21.5246262 30.2982131,20.6682437 C30.2982131,19.9416672 27.7598008,19.331892 24.3338282,19.1637256 L24.3338282,19.1637256 Z" id="形状结合" fill="#2E2E2E"></path>
                </g>
                <g id="编组-6备份" transform="translate(451.485764, 267.000000)">
                    <ellipse id="椭圆形备份-5" fill="#F3B71A" cx="21.0634167" cy="21.0566038" rx="21.0634167" ry="21.0566038"></ellipse>
                    <ellipse id="椭圆形" stroke="#2E2E2E" fill="#F8FCFD" cx="22.4223469" cy="20.3773585" rx="19.8839517" ry="19.8773585"></ellipse>
                    <ellipse id="椭圆形备份-2" stroke="#2E2E2E" cx="22.4223469" cy="20.3773585" rx="15.8071613" ry="15.8018868"></ellipse>
                    <text id="$" font-family="PingFangSC-Semibold, PingFang SC" font-size="26" font-weight="500" fill="#2E2E2E">
                        <tspan x="16" y="30">$</tspan>
                    </text>
                </g>
                <text id="USDT/ETH" font-family="PingFangSC-Light, PingFang SC" font-size="12" font-weight="300" fill="#2E2E2E">
                    <tspan x="340" y="422">USDT/ETH</tspan>
                </text>
                <text id="Price" font-family="PingFangSC-Regular, PingFang SC" font-size="12" font-weight="normal" fill="#858585">
                    <tspan x="251" y="224">Price</tspan>
                </text>
                <text id="Income" font-family="PingFangSC-Regular, PingFang SC" font-size="12" font-weight="normal" fill="#858585">
                    <tspan x="173" y="228">Income</tspan>
                </text>
                <text id="Token" font-family="PingFangSC-Regular, PingFang SC" font-size="12" font-weight="normal" fill="#858585">
                    <tspan x="314" y="127">Token</tspan>
                </text>
                <path id="直线-4备份-3" d="M239.687252,209.671518 L241.687192,209.687032 L241.679435,210.687002 L241.467,238.008 L247.467318,238.05472 L240.35893,252 L233.467739,237.946122 L239.467,237.992 L239.679495,210.671488 L239.687252,209.671518 Z" transform="translate(241.000000, 231.000000) scale(-1, 1) translate(-241.000000, -231.000000) " fill="#2E2E2E" fill-rule="nonzero"></path>
                <path id="直线-4备份-13" d="M306.50907,76.124225 L308.508322,76.178943 L308.480963,77.1785687 L306.889,135.295 L312.888099,135.459715 L305.507693,149.262961 L298.893339,135.076689 L304.891,135.24 L306.481711,77.1238507 L306.50907,76.124225 Z" transform="translate(306.292914, 112.994515) scale(-1, 1) rotate(-46.444448) translate(-306.292914, -112.994515) " fill="#2E2E2E" fill-rule="nonzero"></path>
                <path id="直线-4备份-16" d="M309.662226,310.964639 L311.662158,310.981165 L311.653895,311.98113 L311.079,381.429 L317.079837,381.47892 L309.964398,395.420603 L303.080315,381.363242 L309.079,381.412 L309.653963,311.964605 L309.662226,310.964639 Z" transform="translate(310.804052, 353.496573) scale(-1, -1) rotate(-46.444448) translate(-310.804052, -353.496573) " fill="#2E2E2E" fill-rule="nonzero"></path>
                <path id="直线-4备份-12" d="M217.687252,209.671518 L219.687192,209.687032 L219.679435,210.687002 L219.467,238.008 L225.467318,238.05472 L218.35893,252 L211.467739,237.946122 L217.467,237.992 L217.679495,210.671488 L217.687252,209.671518 Z" transform="translate(219.000000, 231.000000) scale(-1, 1) translate(-219.000000, -231.000000) " fill="#2E2E2E" fill-rule="nonzero"></path>
                <path id="直线-4备份-14" d="M298.488743,61.033729 L298.505593,62.033587 L299.565,124.934 L305.564748,124.833042 L298.801638,138.949002 L291.566736,125.068938 L297.566,124.967 L296.505877,62.0672864 L296.489027,61.0674284 L298.488743,61.033729 Z" transform="translate(297.826270, 100.371191) scale(1, -1) rotate(-45.444448) translate(-297.826270, -100.371191) " fill="#2E2E2E" fill-rule="nonzero"></path>
                <path id="直线-4备份-15" d="M173.840025,65.0483333 L173.856875,66.0481913 L174.917,128.948 L180.916031,128.847646 L174.15292,142.963606 L166.918018,129.083542 L172.917,128.982 L171.857159,66.0818908 L171.840309,65.0820327 L173.840025,65.0483333 Z" transform="translate(173.177552, 104.385796) scale(-1, -1) rotate(-45.444448) translate(-173.177552, -104.385796) " fill="#2E2E2E" fill-rule="nonzero"></path>
                <text id="USDT" font-family="PingFangSC-Regular, PingFang SC" font-size="12" font-weight="normal" fill="#858585">
                    <tspan x="263" y="102">USDT</tspan>
                </text>
                <text id="Token" font-family="PingFangSC-Regular, PingFang SC" font-size="12" font-weight="normal" fill="#858585">
                    <tspan x="174" y="102">Token</tspan>
                </text>
                <g id="编组" transform="translate(232.896462, 287.849057) rotate(-10.000000) translate(-232.896462, -287.849057) translate(203.000000, 260.000000)">
                    <path d="M47.3789819,1 C48.2810678,1 49.0983685,1.35909979 49.6897185,1.94173219 C50.2756535,2.5190294 50.6393443,3.31621223 50.6393443,4.19755671 L50.6393443,4.19755671 L50.6393443,54.6981132 L12.502157,54.6981132 C11.5757531,54.6981132 10.7364059,54.3292531 10.1290843,53.7308846 C9.52717795,53.1378514 9.15358067,52.3189474 9.15358067,51.413643 L9.15358067,51.413643 L9.15358067,1 Z" id="Stroke-1" stroke="#000000" stroke-width="2"></path>
                    <ellipse id="椭圆形" fill="#1557EF" cx="42.8062985" cy="42.7924528" rx="3.39732528" ry="3.39622642"></ellipse>
                    <ellipse id="椭圆形备份" fill="#25EA3F" cx="35.8379998" cy="36.9848078" rx="3.39732528" ry="3.39622642"></ellipse>
                    <path d="M17.9305812,49.3 L17.9305812,49.9037736 C17.9305812,52.5714178 15.9869281,54.7339623 13.5893011,54.7339623 L22.0392927,54.7339623 L55.9943049,54.7339623 C58.0922285,54.7339623 59.7929249,52.8417358 59.7929249,50.5075472 L17.9305812,49.3 Z" id="Stroke-3" stroke="#000000" stroke-width="2" fill="#FFFFFF"></path>
                    <path d="M9.51251079,5.43396226 C9.51251079,2.43286253 7.3830673,0 4.75625539,0 C2.12944349,0 0,2.43286253 0,5.43396226 L9.51251079,5.43396226 Z" id="Fill-5" fill="#000000"></path>
                    <polygon id="矩形" fill="#000000" points="4.75625539 -1.11985892e-13 9.51251079 0 9.51251079 4.0754717 4.75625539 4.0754717"></polygon>
                    <line x1="14.5358929" y1="12.8095248" x2="44.1416509" y2="8.09001004" id="直线-2" stroke="#2E2E2E" stroke-width="2" stroke-linecap="round" transform="translate(29.338772, 10.449767) rotate(10.000000) translate(-29.338772, -10.449767) "></line>
                    <line x1="14.708447" y1="22.3493847" x2="44.314205" y2="17.6298699" id="直线-2备份" stroke="#2E2E2E" stroke-width="2" stroke-linecap="round" transform="translate(29.511326, 19.989627) rotate(10.000000) translate(-29.511326, -19.989627) "></line>
                    <line x1="14.8810011" y1="31.8892446" x2="44.4867591" y2="27.1697298" id="直线-2备份-2" stroke="#2E2E2E" stroke-width="2" stroke-linecap="round" transform="translate(29.683880, 29.529487) rotate(10.000000) translate(-29.683880, -29.529487) "></line>
                </g>
                <g id="编组备份" transform="translate(62.754200, 439.849057) rotate(-10.000000) translate(-62.754200, -439.849057) translate(30.000000, 412.000000)">
                    <path d="M47.3789819,1 C48.2810678,1 49.0983685,1.35909979 49.6897185,1.94173219 C50.2756535,2.5190294 50.6393443,3.31621223 50.6393443,4.19755671 L50.6393443,4.19755671 L50.6393443,54.6981132 L12.502157,54.6981132 C11.5757531,54.6981132 10.7364059,54.3292531 10.1290843,53.7308846 C9.52717795,53.1378514 9.15358067,52.3189474 9.15358067,51.413643 L9.15358067,51.413643 L9.15358067,1 Z" id="Stroke-1" stroke="#000000" stroke-width="2"></path>
                    <path d="M17.9305812,49.3 L17.9305812,49.9037736 C17.9305812,52.5714178 15.9869281,54.7339623 13.5893011,54.7339623 L22.0392927,54.7339623 L55.9943049,54.7339623 C58.0922285,54.7339623 59.7929249,52.8417358 59.7929249,50.5075472 L17.9305812,49.3 Z" id="Stroke-3" stroke="#000000" stroke-width="2" fill="#FFFFFF"></path>
                    <path d="M9.51251079,5.43396226 C9.51251079,2.43286253 7.3830673,1.35000245e-11 4.75625539,1.35000245e-11 C2.12944349,1.35000245e-11 -1.68516247e-14,2.43286253 -1.68516247e-14,5.43396226 L9.51251079,5.43396226 Z" id="Fill-5" fill="#000000"></path>
                    <polygon id="矩形" fill="#000000" points="4.75625539 1.84420055e-11 9.51251079 1.85539914e-11 9.51251079 4.0754717 4.75625539 4.0754717"></polygon>
                    <line x1="14.5358929" y1="12.8095248" x2="44.1416509" y2="8.09001004" id="直线-2" stroke="#2E2E2E" stroke-width="2" stroke-linecap="round" transform="translate(29.338772, 10.449767) rotate(10.000000) translate(-29.338772, -10.449767) "></line>
                    <line x1="14.708447" y1="22.3493847" x2="44.314205" y2="17.6298699" id="直线-2备份" stroke="#2E2E2E" stroke-width="2" stroke-linecap="round" transform="translate(29.511326, 19.989627) rotate(10.000000) translate(-29.511326, -19.989627) "></line>
                    <line x1="14.8810011" y1="31.8892446" x2="44.4867591" y2="27.1697298" id="直线-2备份-2" stroke="#2E2E2E" stroke-width="2" stroke-linecap="round" transform="translate(29.683880, 29.529487) rotate(10.000000) translate(-29.683880, -29.529487) "></line>
                    <path d="M55.5941784,23.762163 L62.6619243,33.1413786 L56.2647472,37.961163 L65.5083992,50.2282901 L60.8187914,53.762163 L51.5747472,41.495163 L43.9034931,47.2768704 L36.8357472,37.8976548 L55.5941784,23.762163 Z" id="形状结合" fill="#EA9325"></path>
                </g>
                <path id="直线-4备份-12" d="M180.35893,430 L194.35893,437 L180.35893,444 L180.358,438 L124,438 L124,444 L110,437 L124,430 L124,436 L180.358,436 L180.35893,430 Z" transform="translate(152.500000, 437.000000) scale(-1, 1) translate(-152.500000, -437.000000) " fill="#2E2E2E" fill-rule="nonzero"></path>
                <path id="直线-4备份-17" d="M418,281 L418,287 L446,287 L446,289 L418,289 L418,295 L404,288 L418,281 Z" fill="#2E2E2E" fill-rule="nonzero"></path>
                <path id="直线-4备份-18" d="M291,281 L291,287 L319,287 L319,289 L291,289 L291,295 L277,288 L291,281 Z" fill="#2E2E2E" fill-rule="nonzero"></path>
                <path id="直线-4备份-19" d="M114,281 L114,287 L185,287 L185,289 L114,289 L114,295 L100,288 L114,281 Z" fill="#2E2E2E" fill-rule="nonzero"></path>
            </g>
        </g>
    </g>
</svg>