<?xml version="1.0" encoding="UTF-8"?>
<svg width="34px" height="34px" viewBox="0 0 34 34" version="1.1" xmlns="http://www.w3.org/2000/svg" xmlns:xlink="http://www.w3.org/1999/xlink">
    <title>Github_icon备份 2</title>
    <defs>
        <polygon id="path-1" points="0 0 32 0 32 31.1670925 0 31.1670925"></polygon>
    </defs>
    <g id="页面-1" stroke="none" stroke-width="1" fill="none" fill-rule="evenodd" opacity="0.200000003">
        <g id="英文版" transform="translate(-1263.000000, -4871.000000)">
            <g id="编组" transform="translate(1264.000000, 4872.000000)">
                <mask id="mask-2" fill="white">
                    <use xlink:href="#path-1"></use>
                </mask>
                <g id="Clip-2"></g>
                <path d="M-4.07290552e-06,15.9966639 C-4.07290552e-06,22.9832853 4.4776668,28.9236587 10.7182541,31.1044145 C11.5591054,31.3179163 11.4308496,30.7173256 11.4308496,30.3116235 L11.4308496,27.5396855 C6.57822709,28.1081409 6.38476408,24.8970622 6.05652862,24.3620046 C5.3972474,23.2368644 3.84363759,22.9500097 4.30676768,22.4148299 C5.41186913,21.8462116 6.53827188,22.55897 7.8408278,24.4873686 C8.78443855,25.8847418 10.6248624,25.6484725 11.560368,25.4149321 C11.7611623,24.5874399 12.1913426,23.8335043 12.8016267,23.2395933 C7.77541694,22.3400513 5.67884809,19.2718502 5.67884809,15.6216715 C5.67884809,13.8518719 6.26335076,12.225072 7.40710409,10.9117228 C6.67846129,8.74705502 7.47520307,6.89591946 7.58052841,6.62099834 C9.65995032,6.4340927 11.816676,8.1090751 11.9848462,8.23981536 C13.1659888,7.9208254 14.5125729,7.75269586 16.0192221,7.75269586 C17.53418,7.75269586 18.8887877,7.92624237 20.0765691,8.24922377 C20.4768543,7.94233034 22.4815383,6.5048798 24.4140506,6.68099223 C24.51681,6.95591336 25.2948164,8.76436486 24.6102017,10.8983637 C25.770043,12.2144009 26.3597997,13.8559855 26.3597997,15.6308763 C26.3597997,19.2864312 24.2511343,22.3574019 19.210425,23.2462728 C20.0824341,24.1052486 20.5729341,25.2785712 20.5716715,26.502683 L20.5716715,30.5265914 C20.5996524,30.8481066 20.5716715,31.1670966 21.1095801,31.1670966 C27.440871,29.0331384 31.9999959,23.0486555 31.9999959,15.9993113 C31.9999959,7.15890697 24.8343744,0 16.0019122,0 C7.15877904,-0.00398977945 -4.07290552e-06,7.15621885 -4.07290552e-06,15.9966639" id="Fill-1" fill="#231916" mask="url(#mask-2)"></path>
            </g>
        </g>
    </g>
</svg>