<?xml version="1.0" encoding="UTF-8"?>
<svg width="172px" height="121px" viewBox="0 0 172 121" version="1.1" xmlns="http://www.w3.org/2000/svg" xmlns:xlink="http://www.w3.org/1999/xlink">
    <title>investor_img</title>
    <g id="页面-1" stroke="none" stroke-width="1" fill="none" fill-rule="evenodd">
        <g id="英文版" transform="translate(-143.000000, -4630.000000)">
            <g id="编组-37" transform="translate(143.000000, 4630.000000)">
                <g id="编组-34" transform="translate(37.000000, 20.000000)">
                    <g id="编组-27" transform="translate(37.000000, 14.000000)">
                        <circle id="椭圆形" stroke="#2E2E2E" stroke-width="2" cx="21" cy="21" r="20"></circle>
                        <circle id="椭圆形备份-53" stroke="#2E2E2E" stroke-width="2" cx="21" cy="21" r="16.2666667"></circle>
                        <path d="M22.2833178,13.1791477 C25.117171,13.5321771 27.1315888,15.0637878 27.2292001,17.2529466 L27.2333333,17.4215289 L24.7726717,17.4215289 C24.7726717,16.4702637 23.3781414,15.5699204 20.9995194,15.5699204 C18.5807186,15.5699204 17.2263671,16.330325 17.2263671,17.4215289 C17.2263671,18.4010518 18.4084209,19.2188881 20.7616668,19.2699547 L20.9995194,19.2733302 C24.7086548,19.2733302 27.2333333,20.9529808 27.2333333,23.5938784 C27.2333333,26.0825408 25.2072849,27.5286548 22.2833178,27.8471576 L22.2823085,30.8 L19.8216469,30.8 L19.8216469,27.8486525 C16.9336772,27.5195891 14.8691322,25.9765017 14.7698387,23.7609658 L14.7666667,23.5923835 L17.2273283,23.5923835 C17.2273283,24.5436004 18.6233485,25.4447635 21.0004806,25.4447635 C23.4185124,25.4447635 24.7733926,24.6835874 24.7733926,23.5931068 C24.7733926,22.613825 23.5923481,21.7957476 21.2390541,21.7439577 L20.7599847,21.7388462 C17.1822473,21.6672856 14.7666667,20.0032587 14.7666667,17.4207573 C14.7666667,14.9015707 16.841689,13.4515508 19.8226081,13.1560013 L19.8216469,10.2666667 L22.2823085,10.2666667 L22.2833178,13.1791477 Z" id="Fill-1" fill="#2E2E2E"></path>
                    </g>
                    <path d="M38.0312765,65.2901189 L52.9485708,69.7259821 C54.2921054,70.1255006 55.7331151,70.0420281 57.0215329,69.4900499 L87.9480237,56.2406626 C90.9048687,54.9739044 94.3309398,56.3165237 95.639842,59.2549559 C96.9489836,62.1939257 95.6564679,65.6395469 92.7373743,66.9924282 L60.4062218,81.9766041 C57.604099,83.2752742 54.4091523,83.4435669 51.4861006,82.4464685 L32.2885461,75.8978838 C30.3109135,75.2232825 28.1478296,75.3492051 26.2618335,76.2487252 L21.5685584,78.4871684 L21.5685584,78.4871684 L14,58.7510652 L27.6220979,52.8820541 C30.4280947,51.6731048 33.5895718,51.5800193 36.4618377,52.6217797 L54.6860395,59.2316317 C56.7374299,59.9756636 57.8139556,62.2265483 57.1055372,64.2905079 L55.0276987,70.3442394 L55.0276987,70.3442394" id="路径-8" stroke="#2E2E2E" stroke-width="2"></path>
                    <path d="M13.2404256,57.3124759 L22.6847711,79.620427 L1,88.5093311 L1,62.5218817 L13.2404256,57.3124759 Z" id="矩形" stroke="#2E2E2E" stroke-width="2" fill="#FA5C26"></path>
                    <line x1="57.5" y1="8" x2="57.5" y2="-1.49425886e-17" id="路径-11" stroke="#2E2E2E" stroke-width="5" stroke-linecap="round"></line>
                    <line x1="41.1537929" y1="11.5617863" x2="41.1537929" y2="3.29573877" id="路径-11备份" stroke="#2E2E2E" stroke-width="5" stroke-linecap="round" transform="translate(41.153793, 7.428763) rotate(135.000000) translate(-41.153793, -7.428763) "></line>
                    <line x1="74.7053537" y1="11.5617863" x2="74.7053537" y2="3.29573877" id="路径-11备份-2" stroke="#2E2E2E" stroke-width="5" stroke-linecap="round" transform="translate(74.705354, 7.428763) scale(-1, 1) rotate(135.000000) translate(-74.705354, -7.428763) "></line>
                </g>
            </g>
        </g>
    </g>
</svg>