<?xml version="1.0" encoding="UTF-8"?>
<svg width="26px" height="26px" viewBox="0 0 26 26" version="1.1" xmlns="http://www.w3.org/2000/svg" xmlns:xlink="http://www.w3.org/1999/xlink">
    <title>ios_img备份 2</title>
    <defs>
        <polygon id="path-1" points="5.76976518e-16 0 19.7213817 0 19.7213817 24 5.76976518e-16 24"></polygon>
    </defs>
    <g id="页面-1" stroke="none" stroke-width="1" fill="none" fill-rule="evenodd">
        <g id="英文版" transform="translate(-371.000000, -487.000000)">
            <g id="ios" transform="translate(356.000000, 479.000000)">
                <g id="编组-24" transform="translate(15.000000, 8.000000)">
                    <g id="编组" transform="translate(3.000000, 1.000000)">
                        <mask id="mask-2" fill="white">
                            <use xlink:href="#path-1"></use>
                        </mask>
                        <g id="Clip-2"></g>
                        <path d="M13.4131597,3.82754813 C14.2628598,2.81934129 14.8362558,1.40404062 14.6768829,0 C13.4616645,0.0476386393 11.9900636,0.803793768 11.1039849,1.79987441 C10.3261759,2.71107165 9.64451025,4.15149087 9.82640324,5.5312791 C11.1888683,5.63954873 12.5747196,4.84701501 13.4131597,3.82754813 M16.4637649,12.7550291 C16.4395125,9.71914857 18.967825,8.25534311 19.0769608,8.18345207 C17.6547309,6.11939975 15.4434319,5.84309565 14.6526305,5.80758321 C12.7687388,5.61529633 10.9697306,6.89894112 10.0221547,6.89894112 C9.06245269,6.89894112 7.57872562,5.83096945 6.02310751,5.85522184 C3.96944908,5.89160044 2.07256508,7.04358935 1.01585344,8.86685 C-1.12355454,12.539356 0.46844217,17.9987441 2.546353,20.9627336 C3.56755219,22.4144129 4.77064437,24.058379 6.36350724,23.9986141 C7.90699915,23.9379832 8.47952898,23.0146597 10.3374359,23.0146597 C12.184949,23.0146597 12.7081078,23.9986141 14.3364831,23.9622356 C15.9657246,23.9379832 17.0362948,22.4863039 18.0445016,20.998246 C19.2112152,19.3308937 19.6850031,17.6869275 19.7213817,17.6029103 C19.6850031,17.5907841 16.5001435,16.3790303 16.4637649,12.7550291" id="Fill-1" fill="#FFFFFF" mask="url(#mask-2)"></path>
                    </g>
                </g>
            </g>
        </g>
    </g>
</svg>