<?xml version="1.0" encoding="UTF-8"?>
<svg width="34px" height="34px" viewBox="0 0 34 34" version="1.1" xmlns="http://www.w3.org/2000/svg" xmlns:xlink="http://www.w3.org/1999/xlink">
    <title>Twitter_icon备份 2</title>
    <g id="页面-1" stroke="none" stroke-width="1" fill="none" fill-rule="evenodd" opacity="0.200000003">
        <g id="英文版" transform="translate(-1205.000000, -4871.000000)" fill="#231916">
            <g id="Fill-4" transform="translate(1205.000000, 4871.000000)">
                <path d="M33,7.08799423 C31.8232184,7.59576974 30.5426031,7.96096623 29.2235789,8.10330489 C30.5850018,7.29191203 31.6194448,6.01129672 32.1078476,4.48840284 C30.8503065,5.23840885 29.4273525,5.78819853 27.9467612,6.07287586 C26.7470496,4.79221247 25.043264,4 23.1549814,4 C19.520947,4 16.5981252,6.94584785 16.5981252,10.5607499 C16.5981252,11.0683331 16.6598005,11.5761086 16.7596443,12.0645115 C11.3180387,11.7798342 6.4647278,9.18024276 3.23814445,5.19990386 C2.66903016,6.17670953 2.34599207,7.29191203 2.34599207,8.51099627 C2.34599207,10.7875976 3.5034491,12.7951448 5.26881384,13.9757241 C4.19182791,13.9334695 3.1767576,13.6296118 2.30373753,13.141209 L2.30373753,13.2219685 C2.30373753,16.4100469 4.55726475,19.0520851 7.56074991,19.6597524 C7.01076794,19.8018988 6.42252133,19.8826103 5.8339863,19.8826103 C5.4071626,19.8826103 5.00346112,19.8404038 4.59581781,19.7827665 C5.42629492,22.3823098 7.84523495,24.2706405 10.7258022,24.3322197 C8.4722269,26.0973441 5.64944117,27.1357289 2.58447302,27.1357289 C2.03449105,27.1357289 1.52690782,27.1164043 1,27.0550174 C3.90734287,28.9199856 7.35688018,29.9969234 11.0718664,29.9969234 C23.1319072,29.9969234 29.7311621,20.0058166 29.7311621,11.3336859 C29.7311621,11.0492008 29.7311621,10.7645235 29.7120298,10.4800385 C30.9887033,9.54543925 32.1078476,8.38798221 33,7.08799423" id="Fill-1"></path>
            </g>
        </g>
    </g>
</svg>